<svg width="71" height="62" viewBox="0 0 71 62" fill="none" xmlns="http://www.w3.org/2000/svg">
<g opacity="0.6" filter="url(#filter0_d_928_1080)">
<path d="M15.6072 8.58939C15.6072 4.39789 19.0247 1 23.2404 1H46.14C50.3558 1 53.7733 4.39789 53.7733 8.58939V31.3576C53.7733 35.5491 50.3558 38.947 46.14 38.947H23.2404C19.0247 38.947 15.6072 35.5491 15.6072 31.3576V8.58939Z" fill="#C8C8C8" fill-opacity="0.7" shape-rendering="crispEdges"/>
<path d="M25.2785 23.7682V15.4198H31.3597V16.5836H26.6398V18.9869H30.3292V20.1253H26.6398V22.6045H31.5378V23.7682H25.2785Z" fill="black" shape-rendering="crispEdges"/>
<path d="M35.5928 23.8947C34.9567 23.8947 34.3758 23.7724 33.8499 23.5279C33.3241 23.2833 32.9085 22.9376 32.6032 22.4906L33.5446 21.6811C33.7312 22.0268 33.9983 22.3051 34.3461 22.5159C34.7023 22.7183 35.1264 22.8195 35.6183 22.8195C36.0084 22.8195 36.318 22.752 36.547 22.6171C36.776 22.4822 36.8905 22.2925 36.8905 22.0479C36.8905 21.8877 36.8354 21.7486 36.7251 21.6305C36.6233 21.504 36.424 21.407 36.1272 21.3396L34.7913 21.0613C34.1128 20.9264 33.6294 20.7113 33.341 20.4162C33.0527 20.1126 32.9085 19.7289 32.9085 19.2651C32.9085 18.9194 33.0103 18.599 33.2138 18.3038C33.4174 18.0087 33.7142 17.7726 34.1044 17.5955C34.503 17.41 34.9779 17.3172 35.5292 17.3172C36.1653 17.3172 36.7081 17.431 37.1576 17.6587C37.6072 17.878 37.9507 18.1942 38.1881 18.6074L37.2467 19.3916C37.0856 19.0543 36.8481 18.8056 36.5343 18.6453C36.2205 18.4767 35.8939 18.3924 35.5547 18.3924C35.2833 18.3924 35.05 18.4261 34.855 18.4936C34.6599 18.561 34.5115 18.6538 34.4097 18.7718C34.3079 18.8899 34.257 19.029 34.257 19.1892C34.257 19.3579 34.3206 19.5055 34.4478 19.632C34.5751 19.7585 34.8041 19.8554 35.1348 19.9229L36.5852 20.2265C37.1958 20.3445 37.6241 20.5469 37.8701 20.8336C38.1245 21.1119 38.2517 21.4534 38.2517 21.8582C38.2517 22.263 38.1457 22.6213 37.9337 22.9333C37.7217 23.2369 37.4163 23.473 37.0177 23.6417C36.6191 23.8103 36.1441 23.8947 35.5928 23.8947Z" fill="black" shape-rendering="crispEdges"/>
<path d="M42.6449 17.3172C43.1538 17.3172 43.5863 17.3931 43.9426 17.5449C44.3073 17.6882 44.6126 17.8948 44.8586 18.1647C45.1045 18.4345 45.2911 18.7423 45.4183 19.0881L44.1334 19.594C44.0231 19.2061 43.845 18.911 43.5991 18.7086C43.3616 18.4978 43.0478 18.3924 42.6576 18.3924C42.276 18.3924 41.9494 18.4809 41.678 18.658C41.4066 18.8266 41.1988 19.0754 41.0547 19.4043C40.919 19.7332 40.8511 20.1379 40.8511 20.6186C40.8511 21.0908 40.9232 21.4914 41.0674 21.8202C41.2116 22.1491 41.4194 22.3979 41.6908 22.5665C41.9622 22.7352 42.2845 22.8195 42.6576 22.8195C42.946 22.8195 43.1962 22.7731 43.4082 22.6804C43.6203 22.5792 43.7941 22.44 43.9298 22.263C44.074 22.0774 44.1716 21.854 44.2225 21.5926L45.4565 22.01C45.3377 22.3894 45.1512 22.7225 44.8967 23.0092C44.6508 23.2875 44.3412 23.5068 43.968 23.667C43.5948 23.8188 43.1665 23.8947 42.6831 23.8947C42.0555 23.8947 41.4999 23.764 41.0165 23.5026C40.5331 23.2411 40.1556 22.8659 39.8842 22.3768C39.6213 21.8793 39.4899 21.289 39.4899 20.6059C39.4899 19.9229 39.6213 19.3368 39.8842 18.8477C40.1556 18.3502 40.5288 17.9707 41.0038 17.7093C41.4872 17.4479 42.0343 17.3172 42.6449 17.3172Z" fill="black" shape-rendering="crispEdges"/>
<path d="M12.3025 45.4612H7.74796L7.11186 48.1554H10.903L10.6868 49.1041H6.89558L6.01776 52.8609H5L6.94647 44.5125H12.5314L12.3025 45.4612Z" fill="white" fill-opacity="0.7" shape-rendering="crispEdges"/>
<path d="M14.798 52.9747C14.1873 52.9747 13.6657 52.8482 13.2331 52.5952C12.8091 52.3338 12.4825 51.9881 12.2536 51.558C12.033 51.1195 11.9228 50.6431 11.9228 50.1287C11.9228 49.4035 12.0627 48.7626 12.3426 48.206C12.6225 47.6495 13.0084 47.2152 13.5003 46.9032C13.9922 46.5827 14.5605 46.4225 15.2051 46.4225C15.8242 46.4225 16.3458 46.5532 16.7699 46.8146C17.1939 47.0676 17.5162 47.4091 17.7368 47.8392C17.9573 48.2608 18.0675 48.7331 18.0675 49.2559C18.0675 49.9727 17.9276 50.6136 17.6477 51.1785C17.3763 51.7351 16.9946 52.1736 16.5027 52.494C16.0108 52.8145 15.4425 52.9747 14.798 52.9747ZM14.8361 52.1019C15.1415 52.1019 15.4256 52.0387 15.6885 51.9122C15.9599 51.7773 16.1974 51.5875 16.4009 51.343C16.6045 51.09 16.7614 50.7906 16.8717 50.4449C16.9819 50.0992 17.037 49.7155 17.037 49.2938C17.037 48.9228 16.9692 48.5897 16.8335 48.2946C16.7063 47.991 16.5027 47.7507 16.2228 47.5736C15.9514 47.3881 15.5994 47.2953 15.1669 47.2953C14.8616 47.2953 14.5732 47.3628 14.3018 47.4977C14.0304 47.6242 13.7929 47.8097 13.5894 48.0542C13.3943 48.2988 13.2374 48.5939 13.1187 48.9397C13.0084 49.2854 12.9533 49.6691 12.9533 50.0907C12.9533 50.4533 13.0211 50.7906 13.1568 51.1026C13.2925 51.4062 13.5003 51.6508 13.7802 51.8363C14.0601 52.0134 14.4121 52.1019 14.8361 52.1019Z" fill="white" fill-opacity="0.7" shape-rendering="crispEdges"/>
<path d="M19.1709 52.8609L20.6466 46.5364H21.4736L21.3336 47.991L21.1809 47.9025C21.3166 47.5904 21.5032 47.3248 21.7407 47.1056C21.9782 46.8779 22.2454 46.705 22.5422 46.587C22.8475 46.4689 23.1486 46.4099 23.4455 46.4099C23.5812 46.4099 23.6999 46.4183 23.8017 46.4352C23.9119 46.452 24.0095 46.4815 24.0943 46.5237L23.789 47.485C23.7042 47.4429 23.6066 47.4134 23.4964 47.3965C23.3946 47.3712 23.2716 47.3586 23.1274 47.3586C22.8051 47.3586 22.4998 47.4344 22.2114 47.5862C21.9315 47.7296 21.6856 47.9531 21.4736 48.2566C21.2615 48.5602 21.1004 48.9523 20.9901 49.433L20.1886 52.8609H19.1709Z" fill="white" fill-opacity="0.7" shape-rendering="crispEdges"/>
<path d="M31.2084 52.9747C30.6232 52.9747 30.1185 52.8482 29.6945 52.5952C29.2789 52.3338 28.9608 51.9881 28.7403 51.558C28.5198 51.1195 28.4096 50.6389 28.4096 50.116C28.4096 49.3908 28.5495 48.7542 28.8294 48.206C29.1093 47.6495 29.4994 47.2152 29.9998 46.9032C30.5002 46.5827 31.0812 46.4225 31.7427 46.4225C32.2262 46.4225 32.646 46.5069 33.0022 46.6755C33.3669 46.8442 33.6595 47.0761 33.88 47.3712C34.109 47.6663 34.2617 47.9994 34.338 48.3705L33.2694 48.6235C33.2354 48.2524 33.087 47.9404 32.8241 47.6874C32.5697 47.426 32.1922 47.2953 31.6918 47.2953C31.3695 47.2953 31.0685 47.3628 30.7886 47.4977C30.5172 47.6326 30.2797 47.8266 30.0761 48.0795C29.8726 48.3241 29.7157 48.6192 29.6054 48.965C29.4952 49.3023 29.44 49.6817 29.44 50.1034C29.44 50.4744 29.5121 50.8117 29.6563 51.1153C29.8005 51.4189 30.0083 51.6592 30.2797 51.8363C30.5596 52.0134 30.9031 52.1019 31.3102 52.1019C31.6409 52.1019 31.9505 52.0176 32.2389 51.8489C32.5357 51.6803 32.7435 51.4315 32.8623 51.1026L33.8546 51.4568C33.6341 51.9459 33.2863 52.3212 32.8114 52.5826C32.3449 52.844 31.8106 52.9747 31.2084 52.9747Z" fill="white" fill-opacity="0.7" shape-rendering="crispEdges"/>
<path d="M37.3685 52.9621C36.9105 52.9621 36.5034 52.8609 36.1471 52.6585C35.7994 52.4477 35.545 52.1483 35.3838 51.7604C35.2311 51.3641 35.2184 50.8918 35.3456 50.3437L36.2362 46.5364H37.254L36.3761 50.3184C36.2404 50.8834 36.2913 51.3177 36.5288 51.6213C36.7748 51.9248 37.1437 52.0766 37.6356 52.0766C38.0258 52.0766 38.3693 51.9923 38.6661 51.8236C38.9629 51.655 39.2131 51.4062 39.4167 51.0774C39.6203 50.7485 39.7772 50.3437 39.8874 49.863L40.6635 46.5364H41.6812L40.2055 52.8609H39.3149L39.5566 51.4442L39.6839 51.5074C39.5142 51.9965 39.2174 52.3633 38.7933 52.6079C38.3693 52.844 37.8943 52.9621 37.3685 52.9621Z" fill="white" fill-opacity="0.7" shape-rendering="crispEdges"/>
<path d="M42.4656 52.8609L43.9414 46.5364H44.7683L44.6284 47.991L44.4757 47.9025C44.6114 47.5904 44.798 47.3248 45.0355 47.1056C45.2729 46.8779 45.5401 46.705 45.837 46.587C46.1423 46.4689 46.4434 46.4099 46.7402 46.4099C46.8759 46.4099 46.9947 46.4183 47.0964 46.4352C47.2067 46.452 47.3042 46.4815 47.389 46.5237L47.0837 47.485C46.9989 47.4429 46.9014 47.4134 46.7911 47.3965C46.6893 47.3712 46.5664 47.3586 46.4222 47.3586C46.0999 47.3586 45.7946 47.4344 45.5062 47.5862C45.2263 47.7296 44.9803 47.9531 44.7683 48.2566C44.5563 48.5602 44.3951 48.9523 44.2849 49.433L43.4834 52.8609H42.4656Z" fill="white" fill-opacity="0.7" shape-rendering="crispEdges"/>
<path d="M49.9361 53C49.4442 53 48.9989 52.9241 48.6003 52.7723C48.2102 52.6205 47.8752 52.4055 47.5953 52.1272C47.3239 51.8489 47.1161 51.5201 46.9719 51.1406L47.9388 50.7232C48.0999 51.187 48.3501 51.5369 48.6894 51.773C49.0286 52.0007 49.4612 52.1146 49.987 52.1146C50.4365 52.1146 50.7758 52.0176 51.0048 51.8236C51.2423 51.6213 51.361 51.3767 51.361 51.09C51.361 50.8708 51.2974 50.6979 51.1702 50.5714C51.043 50.4449 50.8436 50.3437 50.5722 50.2678L49.44 49.9516C48.9141 49.8082 48.5198 49.5932 48.2568 49.3065C47.9939 49.0113 47.8624 48.674 47.8624 48.2946C47.8624 47.9404 47.96 47.6242 48.1551 47.3459C48.3501 47.0592 48.63 46.8315 48.9947 46.6629C49.3594 46.4942 49.792 46.4099 50.2924 46.4099C50.8945 46.4099 51.4246 46.5448 51.8826 46.8146C52.3406 47.0845 52.6671 47.4766 52.8622 47.991L51.9335 48.4337C51.8572 48.1976 51.7384 47.9952 51.5773 47.8266C51.4161 47.6495 51.2211 47.5146 50.9921 47.4218C50.7716 47.329 50.5171 47.2827 50.2287 47.2827C49.7623 47.2827 49.4145 47.367 49.1855 47.5356C48.965 47.7043 48.8548 47.9278 48.8548 48.206C48.8548 48.4421 48.9353 48.6319 49.0965 48.7752C49.2661 48.9102 49.4739 49.0113 49.7199 49.0788L50.9666 49.433C51.3992 49.551 51.7384 49.745 51.9844 50.0148C52.2388 50.2847 52.366 50.5967 52.366 50.9509C52.366 51.3725 52.26 51.7393 52.048 52.0513C51.836 52.3549 51.5476 52.591 51.1829 52.7597C50.8182 52.9199 50.4026 53 49.9361 53Z" fill="white" fill-opacity="0.7" shape-rendering="crispEdges"/>
<path d="M56.7037 52.9747C56.093 52.9747 55.5714 52.8482 55.1389 52.5952C54.7148 52.3338 54.3883 51.9881 54.1593 51.558C53.9387 51.1195 53.8285 50.6431 53.8285 50.1287C53.8285 49.4035 53.9684 48.7626 54.2483 48.206C54.5282 47.6495 54.9141 47.2152 55.406 46.9032C55.8979 46.5827 56.4662 46.4225 57.1108 46.4225C57.7299 46.4225 58.2515 46.5532 58.6756 46.8146C59.0997 47.0676 59.4219 47.4091 59.6425 47.8392C59.863 48.2608 59.9732 48.7331 59.9732 49.2559C59.9732 49.9727 59.8333 50.6136 59.5534 51.1785C59.282 51.7351 58.9003 52.1736 58.4084 52.494C57.9165 52.8145 57.3483 52.9747 56.7037 52.9747ZM56.7418 52.1019C57.0472 52.1019 57.3313 52.0387 57.5942 51.9122C57.8656 51.7773 58.1031 51.5875 58.3066 51.343C58.5102 51.09 58.6671 50.7906 58.7774 50.4449C58.8876 50.0992 58.9427 49.7155 58.9427 49.2938C58.9427 48.9228 58.8749 48.5897 58.7392 48.2946C58.612 47.991 58.4084 47.7507 58.1285 47.5736C57.8571 47.3881 57.5052 47.2953 57.0726 47.2953C56.7673 47.2953 56.4789 47.3628 56.2075 47.4977C55.9361 47.6242 55.6986 47.8097 55.4951 48.0542C55.3 48.2988 55.1431 48.5939 55.0244 48.9397C54.9141 49.2854 54.859 49.6691 54.859 50.0907C54.859 50.4533 54.9268 50.7906 55.0625 51.1026C55.1982 51.4062 55.406 51.6508 55.6859 51.8363C55.9658 52.0134 56.3178 52.1019 56.7418 52.1019Z" fill="white" fill-opacity="0.7" shape-rendering="crispEdges"/>
<path d="M61.0766 52.8609L62.5523 46.5364H63.3793L63.2393 47.991L63.0867 47.9025C63.2224 47.5904 63.4089 47.3248 63.6464 47.1056C63.8839 46.8779 64.1511 46.705 64.4479 46.587C64.7532 46.4689 65.0543 46.4099 65.3512 46.4099C65.4869 46.4099 65.6056 46.4183 65.7074 46.4352C65.8177 46.452 65.9152 46.4815 66 46.5237L65.6947 47.485C65.6099 47.4429 65.5123 47.4134 65.4021 47.3965C65.3003 47.3712 65.1773 47.3586 65.0331 47.3586C64.7108 47.3586 64.4055 47.4344 64.1171 47.5862C63.8373 47.7296 63.5913 47.9531 63.3793 48.2566C63.1672 48.5602 63.0061 48.9523 62.8958 49.433L62.0943 52.8609H61.0766Z" fill="white" fill-opacity="0.7" shape-rendering="crispEdges"/>
</g>
<defs>
<filter id="filter0_d_928_1080" x="0" y="0" width="71" height="62" filterUnits="userSpaceOnUse" color-interpolation-filters="sRGB">
<feFlood flood-opacity="0" result="BackgroundImageFix"/>
<feColorMatrix in="SourceAlpha" type="matrix" values="0 0 0 0 0 0 0 0 0 0 0 0 0 0 0 0 0 0 127 0" result="hardAlpha"/>
<feOffset dy="4"/>
<feGaussianBlur stdDeviation="2.5"/>
<feComposite in2="hardAlpha" operator="out"/>
<feColorMatrix type="matrix" values="0 0 0 0 0 0 0 0 0 0 0 0 0 0 0 0 0 0 0.5 0"/>
<feBlend mode="normal" in2="BackgroundImageFix" result="effect1_dropShadow_928_1080"/>
<feBlend mode="normal" in="SourceGraphic" in2="effect1_dropShadow_928_1080" result="shape"/>
</filter>
</defs>
</svg>
