<svg width="30" height="30" viewBox="0 0 30 30" fill="none" xmlns="http://www.w3.org/2000/svg">
<path d="M8.45009 27.5H21.5501C25.0001 27.5 26.3751 25.3875 26.5376 22.8125L27.1876 12.4875C27.3626 9.7875 25.2126 7.5 22.5001 7.5C21.7376 7.5 21.0376 7.0625 20.6876 6.3875L19.7876 4.575C19.2126 3.4375 17.7126 2.5 16.4376 2.5H13.5751C12.2876 2.5 10.7876 3.4375 10.2126 4.575L9.31259 6.3875C8.96259 7.0625 8.26259 7.5 7.50009 7.5C4.78759 7.5 2.63759 9.7875 2.81259 12.4875L3.46259 22.8125C3.61259 25.3875 5.00009 27.5 8.45009 27.5Z" stroke="#fff" stroke-width="1.5" stroke-linecap="round" stroke-linejoin="round"/>
<path d="M13.125 10H16.875" stroke="#fff" stroke-width="1.5" stroke-linecap="round" stroke-linejoin="round"/>
<path d="M15 22.5C17.2375 22.5 19.0625 20.675 19.0625 18.4375C19.0625 16.2 17.2375 14.375 15 14.375C12.7625 14.375 10.9375 16.2 10.9375 18.4375C10.9375 20.675 12.7625 22.5 15 22.5Z" stroke="#fff" stroke-width="1.5" stroke-linecap="round" stroke-linejoin="round"/>
</svg>
