<svg width="47" height="51" viewBox="0 0 47 51" fill="none" xmlns="http://www.w3.org/2000/svg">
<path d="M46.1563 39.0162C46.1563 48.03 38.8491 47.1894 29.8353 47.1894C20.8215 47.1894 13.5143 48.03 13.5143 39.0162C13.5143 30.0023 20.8215 22.6952 29.8353 22.6952C38.8491 22.6952 46.1563 30.0023 46.1563 39.0162Z" fill="url(#paint0_linear_7_314)"/>
<path d="M38.2764 11.9211C38.2764 16.5829 34.4972 20.3621 29.8353 20.3621C25.1734 20.3621 21.3942 16.5829 21.3942 11.9211C21.3942 7.25918 25.1734 3.47998 29.8353 3.47998C34.4972 3.47998 38.2764 7.25918 38.2764 11.9211Z" fill="url(#paint1_linear_7_314)"/>
<mask id="mask0_7_314" style="mask-type:alpha" maskUnits="userSpaceOnUse" x="13" y="3" width="34" height="45">
<path d="M46.156 39.0162C46.156 48.03 38.8489 47.1894 29.835 47.1894C20.8212 47.1894 13.514 48.03 13.514 39.0162C13.514 30.0023 20.8212 22.6952 29.835 22.6952C38.8489 22.6952 46.156 30.0023 46.156 39.0162Z" fill="url(#paint2_linear_7_314)"/>
<path d="M38.2761 11.9211C38.2761 16.5829 34.4969 20.3621 29.835 20.3621C25.1732 20.3621 21.394 16.5829 21.394 11.9211C21.394 7.25918 25.1732 3.47998 29.835 3.47998C34.4969 3.47998 38.2761 7.25918 38.2761 11.9211Z" fill="url(#paint3_linear_7_314)"/>
</mask>
<g mask="url(#mask0_7_314)">
<g filter="url(#filter0_f_7_314)">
<path d="M42.0864 44.672C42.0864 55.1205 33.6163 54.1461 23.1678 54.1461C12.7194 54.1461 4.24921 55.1205 4.24921 44.672C4.24921 34.2235 12.7194 25.7534 23.1678 25.7534C33.6163 25.7534 42.0864 34.2235 42.0864 44.672Z" fill="url(#paint4_linear_7_314)"/>
<path d="M32.9524 13.2645C32.9524 18.6684 28.5717 23.0491 23.1678 23.0491C17.764 23.0491 13.3833 18.6684 13.3833 13.2645C13.3833 7.86067 17.764 3.47998 23.1678 3.47998C28.5717 3.47998 32.9524 7.86067 32.9524 13.2645Z" fill="url(#paint5_linear_7_314)"/>
</g>
</g>
<g filter="url(#filter1_bi_7_314)">
<path d="M37.8372 41.192C37.8372 51.6405 29.3671 50.6661 18.9186 50.6661C8.47015 50.6661 0 51.6405 0 41.192C0 30.7436 8.47015 22.2734 18.9186 22.2734C29.3671 22.2734 37.8372 30.7436 37.8372 41.192Z" fill="url(#paint6_linear_7_314)"/>
<path d="M28.7031 9.78454C28.7031 15.1884 24.3225 19.5691 18.9186 19.5691C13.5148 19.5691 9.13407 15.1884 9.13407 9.78454C9.13407 4.38069 13.5148 0 18.9186 0C24.3225 0 28.7031 4.38069 28.7031 9.78454Z" fill="url(#paint7_linear_7_314)"/>
</g>
<defs>
<filter id="filter0_f_7_314" x="-87.7508" y="-88.52" width="221.837" height="234.69" filterUnits="userSpaceOnUse" color-interpolation-filters="sRGB">
<feFlood flood-opacity="0" result="BackgroundImageFix"/>
<feBlend mode="normal" in="SourceGraphic" in2="BackgroundImageFix" result="shape"/>
<feGaussianBlur stdDeviation="46" result="effect1_foregroundBlur_7_314"/>
</filter>
<filter id="filter1_bi_7_314" x="-49" y="-49" width="135.837" height="148.69" filterUnits="userSpaceOnUse" color-interpolation-filters="sRGB">
<feFlood flood-opacity="0" result="BackgroundImageFix"/>
<feGaussianBlur in="BackgroundImage" stdDeviation="24.5"/>
<feComposite in2="SourceAlpha" operator="in" result="effect1_backgroundBlur_7_314"/>
<feBlend mode="normal" in="SourceGraphic" in2="effect1_backgroundBlur_7_314" result="shape"/>
<feColorMatrix in="SourceAlpha" type="matrix" values="0 0 0 0 0 0 0 0 0 0 0 0 0 0 0 0 0 0 127 0" result="hardAlpha"/>
<feOffset dx="29"/>
<feGaussianBlur stdDeviation="32.5"/>
<feComposite in2="hardAlpha" operator="arithmetic" k2="-1" k3="1"/>
<feColorMatrix type="matrix" values="0 0 0 0 1 0 0 0 0 1 0 0 0 0 1 0 0 0 0.55 0"/>
<feBlend mode="normal" in2="shape" result="effect2_innerShadow_7_314"/>
</filter>
<linearGradient id="paint0_linear_7_314" x1="23.144" y1="7.50217" x2="44.834" y2="47.2101" gradientUnits="userSpaceOnUse">
<stop stop-color="#98D1D9"/>
<stop offset="1" stop-color="#506F73"/>
</linearGradient>
<linearGradient id="paint1_linear_7_314" x1="23.144" y1="7.50217" x2="44.834" y2="47.2101" gradientUnits="userSpaceOnUse">
<stop stop-color="#98D1D9"/>
<stop offset="1" stop-color="#506F73"/>
</linearGradient>
<linearGradient id="paint2_linear_7_314" x1="23.1437" y1="7.50217" x2="44.8338" y2="47.2101" gradientUnits="userSpaceOnUse">
<stop stop-color="#98D1D9"/>
<stop offset="1" stop-color="#506F73"/>
</linearGradient>
<linearGradient id="paint3_linear_7_314" x1="23.1437" y1="7.50217" x2="44.8338" y2="47.2101" gradientUnits="userSpaceOnUse">
<stop stop-color="#98D1D9"/>
<stop offset="1" stop-color="#506F73"/>
</linearGradient>
<linearGradient id="paint4_linear_7_314" x1="12.8179" y1="5.75564" x2="38.6892" y2="51.4877" gradientUnits="userSpaceOnUse">
<stop stop-color="#506F73"/>
<stop offset="0.931088" stop-color="#004F59"/>
</linearGradient>
<linearGradient id="paint5_linear_7_314" x1="12.8179" y1="5.75564" x2="38.6892" y2="51.4877" gradientUnits="userSpaceOnUse">
<stop stop-color="#506F73"/>
<stop offset="0.931088" stop-color="#004F59"/>
</linearGradient>
<linearGradient id="paint6_linear_7_314" x1="8.56873" y1="2.27566" x2="34.44" y2="48.0077" gradientUnits="userSpaceOnUse">
<stop stop-color="#98D1D9" stop-opacity="0.1"/>
<stop offset="1" stop-color="#98D1D9" stop-opacity="0.6"/>
</linearGradient>
<linearGradient id="paint7_linear_7_314" x1="8.56873" y1="2.27566" x2="34.44" y2="48.0077" gradientUnits="userSpaceOnUse">
<stop stop-color="#98D1D9" stop-opacity="0.1"/>
<stop offset="1" stop-color="#98D1D9" stop-opacity="0.6"/>
</linearGradient>
</defs>
</svg>
