<svg width="17" height="21" viewBox="0 0 17 21" fill="none" xmlns="http://www.w3.org/2000/svg">
<path d="M15.481 20.1251V4.46445C15.4809 4.29662 15.4012 4.13306 15.253 3.99689C15.1049 3.86072 14.8959 3.75884 14.6556 3.70566L2.58809 1.04137C2.40664 1.00109 2.21331 0.990017 2.02412 1.00906C1.83492 1.0281 1.65529 1.07671 1.50008 1.15086C1.34488 1.22502 1.21858 1.32259 1.13161 1.43549C1.04465 1.5484 0.999539 1.67341 1 1.80016V20.1251" stroke="#B0CAD1" stroke-width="1.6" stroke-linecap="round" stroke-linejoin="round"/>
<path d="M10.6523 15.078V15.8773" stroke="#B0CAD1" stroke-width="1.6" stroke-linecap="round" stroke-linejoin="round"/>
<path d="M10.6523 11.0816V11.8809" stroke="#B0CAD1" stroke-width="1.6" stroke-linecap="round" stroke-linejoin="round"/>
<path d="M10.6523 7.08517V7.88446" stroke="#B0CAD1" stroke-width="1.6" stroke-linecap="round" stroke-linejoin="round"/>
<path d="M5.82812 15.078V15.8773" stroke="#B0CAD1" stroke-width="1.6" stroke-linecap="round" stroke-linejoin="round"/>
<path d="M5.82812 11.0816V11.8809" stroke="#B0CAD1" stroke-width="1.6" stroke-linecap="round" stroke-linejoin="round"/>
<path d="M5.82812 7.08517V7.88446" stroke="#B0CAD1" stroke-width="1.6" stroke-linecap="round" stroke-linejoin="round"/>
</svg>
