<svg width="1920" height="1080" viewBox="0 0 1920 1080" fill="none" xmlns="http://www.w3.org/2000/svg">
<g clip-path="url(#clip0_30_2)">
<rect width="1920" height="1080" fill="white"/>
<rect width="1920" height="1080" fill="#6F18E1"/>
<path d="M1338.2 1074.92C1337.79 1073.96 1337.39 1072.99 1337 1072.02L1337 959.978C1337.39 959.008 1337.79 958.044 1338.2 957.084L1338.2 1074.92Z" fill="#F88EB4"/>
<path d="M1350.19 1097.46C1349.79 1096.84 1349.39 1096.21 1348.99 1095.58L1348.99 936.423C1349.39 935.791 1349.79 935.163 1350.19 934.538L1350.19 1097.46Z" fill="#F88EB4"/>
<path d="M1362.18 1113.54C1361.78 1113.07 1361.38 1112.6 1360.98 1112.12L1360.98 919.878C1361.38 919.403 1361.78 918.929 1362.18 918.458L1362.18 1113.54Z" fill="#F88EB4"/>
<path d="M1374.17 1126.04C1373.77 1125.66 1373.37 1125.29 1372.98 1124.91L1372.98 907.088C1373.37 906.711 1373.77 906.335 1374.17 905.962L1374.17 1126.04Z" fill="#F88EB4"/>
<path d="M1386.17 1136.07C1385.76 1135.77 1385.36 1135.47 1384.97 1135.16L1384.97 896.84C1385.36 896.534 1385.76 896.23 1386.17 895.929L1386.17 1136.07Z" fill="#F88EB4"/>
<path d="M1398.16 1144.21C1397.76 1143.97 1397.36 1143.72 1396.96 1143.47L1396.96 888.525C1397.36 888.277 1397.76 888.03 1398.16 887.785L1398.16 1144.21Z" fill="#F88EB4"/>
<path d="M1410.15 1150.8C1409.75 1150.61 1409.35 1150.41 1408.95 1150.21L1408.95 881.791C1409.35 881.591 1409.75 881.392 1410.15 881.195L1410.15 1150.8Z" fill="#F88EB4"/>
<path d="M1422.14 1156.06C1421.74 1155.9 1421.34 1155.75 1420.94 1155.59L1420.94 876.413C1421.34 876.255 1421.74 876.098 1422.14 875.943L1422.14 1156.06Z" fill="#F88EB4"/>
<path d="M1434.13 1160.11C1433.73 1160 1433.33 1159.88 1432.93 1159.76L1432.93 872.242C1433.33 872.122 1433.73 872.004 1434.13 871.887L1434.13 1160.11Z" fill="#F88EB4"/>
<path d="M1446.12 1163.07C1445.72 1162.99 1445.32 1162.91 1444.93 1162.82L1444.93 869.175C1445.32 869.091 1445.72 869.008 1446.12 868.927L1446.12 1163.07Z" fill="#F88EB4"/>
<path d="M1458.12 1165.01C1457.72 1164.96 1457.32 1164.91 1456.92 1164.86L1456.92 867.143C1457.32 867.091 1457.72 867.042 1458.12 866.994L1458.12 1165.01Z" fill="#F88EB4"/>
<path d="M1470.11 1165.96C1469.71 1165.94 1469.31 1165.92 1468.91 1165.91L1468.91 866.094C1469.31 866.076 1469.71 866.058 1470.11 866.042L1470.11 1165.96Z" fill="#F88EB4"/>
<path d="M1482.1 1165.96C1481.7 1165.97 1481.3 1165.99 1480.9 1166L1480.9 866C1481.3 866.013 1481.7 866.027 1482.1 866.042L1482.1 1165.96Z" fill="#F88EB4"/>
<path d="M1494.09 1165.01C1493.69 1165.05 1493.29 1165.1 1492.89 1165.14L1492.89 866.855C1493.29 866.9 1493.69 866.946 1494.09 866.994L1494.09 1165.01Z" fill="#F88EB4"/>
<path d="M1506.08 1163.07C1505.68 1163.15 1505.28 1163.23 1504.88 1163.31L1504.88 868.688C1505.28 868.766 1505.68 868.846 1506.08 868.927L1506.08 1163.07Z" fill="#F88EB4"/>
<path d="M1518.07 1160.11C1517.68 1160.23 1517.28 1160.34 1516.88 1160.46L1516.88 871.543C1517.28 871.656 1517.68 871.771 1518.07 871.887L1518.07 1160.11Z" fill="#F88EB4"/>
<path d="M1530.07 1156.06C1529.67 1156.21 1529.27 1156.36 1528.87 1156.51L1528.87 875.486C1529.27 875.637 1529.67 875.789 1530.07 875.943L1530.07 1156.06Z" fill="#F88EB4"/>
<path d="M1542.06 1150.8C1541.66 1151 1541.26 1151.2 1540.86 1151.39L1540.86 880.612C1541.26 880.805 1541.66 880.999 1542.06 881.195L1542.06 1150.8Z" fill="#F88EB4"/>
<path d="M1554.05 1144.21C1553.65 1144.46 1553.25 1144.7 1552.85 1144.94L1552.85 887.061C1553.25 887.3 1553.65 887.542 1554.05 887.785L1554.05 1144.21Z" fill="#F88EB4"/>
<path d="M1566.04 1136.07C1565.64 1136.37 1565.24 1136.67 1564.84 1136.96L1564.84 895.036C1565.24 895.332 1565.64 895.629 1566.04 895.929L1566.04 1136.07Z" fill="#F88EB4"/>
<path d="M1578.03 1126.04C1577.64 1126.41 1577.24 1126.77 1576.83 1127.14L1576.83 904.86C1577.24 905.225 1577.64 905.593 1578.03 905.962L1578.03 1126.04Z" fill="#F88EB4"/>
<path d="M1590.02 1113.54C1589.63 1114.01 1589.23 1114.47 1588.83 1114.93L1588.83 917.073C1589.23 917.532 1589.63 917.994 1590.02 918.458L1590.02 1113.54Z" fill="#F88EB4"/>
<path d="M1602.02 1097.46C1601.62 1098.07 1601.22 1098.68 1600.82 1099.29L1600.82 932.713C1601.22 933.318 1601.62 933.927 1602.02 934.538L1602.02 1097.46Z" fill="#F88EB4"/>
<path d="M1614.01 1074.92C1613.62 1075.83 1613.22 1076.74 1612.81 1077.65L1612.81 954.35C1613.22 955.257 1613.62 956.168 1614.01 957.084L1614.01 1074.92Z" fill="#F88EB4"/>
<path d="M1624.8 996.926C1625.59 1003.17 1626 1009.54 1626 1016C1626 1022.46 1625.59 1028.83 1624.8 1035.07L1624.8 996.926Z" fill="#F88EB4"/>
<path d="M564.306 -137.112C565.816 -137.757 567.333 -138.386 568.859 -139H745.141C746.667 -138.386 748.184 -137.757 749.694 -137.112H564.306Z" fill="#A294EE"/>
<path d="M528.833 -118.232C529.817 -118.869 530.805 -119.498 531.799 -120.12H782.201C783.195 -119.498 784.183 -118.869 785.167 -118.232H528.833Z" fill="#A294EE"/>
<path d="M505.769 -101.241C505.02 -100.616 504.275 -99.9865 503.534 -99.3527H810.466C809.725 -99.9865 808.98 -100.616 808.231 -101.241H505.769Z" fill="#A294EE"/>
<path d="M483.874 -80.473C484.461 -81.1056 485.051 -81.7349 485.645 -82.361H828.355C828.949 -81.7349 829.539 -81.1056 830.126 -80.473H483.874Z" fill="#A294EE"/>
<path d="M469.522 -63.4813C469.041 -62.8545 468.563 -62.2252 468.088 -61.5934H606.951C608.943 -62.2618 610.953 -62.8914 612.98 -63.4813H469.522Z" fill="#A294EE"/>
<path d="M701.02 -63.4813C703.047 -62.8914 705.057 -62.2618 707.049 -61.5934H845.912C845.437 -62.2252 844.959 -62.8545 844.479 -63.4813H701.02Z" fill="#A294EE"/>
<path d="M571.699 -44.6017H456.44C456.049 -43.9743 455.661 -43.345 455.275 -42.7137H568.849C569.792 -43.353 570.742 -43.9824 571.699 -44.6017Z" fill="#A294EE"/>
<path d="M745.151 -42.7137C744.208 -43.353 743.258 -43.9824 742.301 -44.6017H857.56C857.951 -43.9743 858.339 -43.345 858.725 -42.7137H745.151Z" fill="#A294EE"/>
<path d="M547.896 -25.722H445.844C445.529 -25.0943 445.217 -24.4649 444.907 -23.834H545.969C546.606 -24.4688 547.248 -25.0981 547.896 -25.722Z" fill="#A294EE"/>
<path d="M768.031 -23.834C767.394 -24.4688 766.752 -25.0981 766.104 -25.722H868.156C868.471 -25.0943 868.783 -24.4649 869.093 -23.834H768.031Z" fill="#A294EE"/>
<path d="M531.191 -6.84232H437.383C437.134 -6.21433 436.888 -5.585 436.644 -4.95436H529.793C530.254 -5.58727 530.72 -6.21661 531.191 -6.84232Z" fill="#A294EE"/>
<path d="M784.207 -4.95436C783.746 -5.58727 783.28 -6.21661 782.809 -6.84232H876.617C876.866 -6.21433 877.112 -5.585 877.356 -4.95436H784.207Z" fill="#A294EE"/>
<path d="M519 12.0373H430.821C430.632 12.6656 430.446 13.2949 430.262 13.9253H517.981C518.316 13.2934 518.656 12.6641 519 12.0373Z" fill="#A294EE"/>
<path d="M796.019 13.9253C795.684 13.2934 795.344 12.6641 795 12.0373H883.179C883.368 12.6656 883.554 13.2949 883.738 13.9253H796.019Z" fill="#A294EE"/>
<path d="M510.216 30.917H425.996C425.863 31.5454 425.733 32.1747 425.605 32.805H509.499C509.734 32.1737 509.973 31.5444 510.216 30.917Z" fill="#A294EE"/>
<path d="M804.501 32.805C804.266 32.1737 804.027 31.5444 803.785 30.917H888.004C888.137 31.5454 888.267 32.1747 888.395 32.805H804.501Z" fill="#A294EE"/>
<path d="M504.259 49.7967H422.798C422.717 50.4252 422.639 51.0546 422.564 51.6846H503.805C503.953 51.0539 504.104 50.4245 504.259 49.7967Z" fill="#A294EE"/>
<path d="M810.195 51.6846C810.047 51.0539 809.896 50.4245 809.741 49.7967H891.202C891.283 50.4252 891.361 51.0546 891.436 51.6846H810.195Z" fill="#A294EE"/>
<path d="M500.805 68.6763H421.149C421.119 69.305 421.092 69.9343 421.067 70.5643H500.589C500.657 69.9339 500.729 69.3045 500.805 68.6763Z" fill="#A294EE"/>
<path d="M813.411 70.5643C813.343 69.9339 813.271 69.3045 813.195 68.6763H892.851C892.881 69.305 892.908 69.9343 892.933 70.5643H813.411Z" fill="#A294EE"/>
<path d="M499.667 87.556H421C421.02 88.186 421.042 88.8153 421.067 89.444H499.676C499.67 88.8677 499.667 88.2906 499.667 87.7128C499.667 87.6605 499.667 87.6083 499.667 87.556Z" fill="#A294EE"/>
<path d="M814.324 89.444C814.33 88.8677 814.333 88.2906 814.333 87.7128C814.333 87.6605 814.333 87.6083 814.333 87.556H893C892.994 87.748 892.988 87.9399 892.981 88.1317C892.966 88.5695 892.95 89.0069 892.933 89.444H814.324Z" fill="#A294EE"/>
<path d="M500.768 106.436H422.346C422.416 107.066 422.489 107.695 422.564 108.324H501.003C500.921 107.695 500.842 107.066 500.768 106.436Z" fill="#A294EE"/>
<path d="M812.997 108.324C813.079 107.695 813.158 107.066 813.232 106.436H891.654C891.584 107.066 891.511 107.695 891.436 108.324H812.997Z" fill="#A294EE"/>
<path d="M504.182 125.315H425.229C425.352 125.946 425.477 126.575 425.605 127.203H504.657C504.495 126.576 504.337 125.946 504.182 125.315Z" fill="#A294EE"/>
<path d="M809.343 127.203C809.505 126.576 809.663 125.946 809.818 125.315H888.771C888.648 125.946 888.523 126.575 888.395 127.203H809.343Z" fill="#A294EE"/>
<path d="M510.095 144.195H429.721C429.899 144.825 430.079 145.455 430.262 146.083H510.834C510.584 145.456 510.337 144.826 510.095 144.195Z" fill="#A294EE"/>
<path d="M803.166 146.083C803.416 145.456 803.663 144.826 803.905 144.195H884.279C884.101 144.825 883.921 145.455 883.738 146.083H803.166Z" fill="#A294EE"/>
<path d="M518.828 163.075H435.925C436.162 163.705 436.402 164.335 436.644 164.963H519.876C519.523 164.336 519.173 163.707 518.828 163.075Z" fill="#A294EE"/>
<path d="M794.124 164.963C794.477 164.336 794.827 163.707 795.172 163.075H878.075C877.838 163.705 877.598 164.335 877.356 164.963H794.124Z" fill="#A294EE"/>
<path d="M530.955 181.954H443.99C444.293 182.585 444.599 183.215 444.907 183.842H532.39C531.907 183.217 531.429 182.587 530.955 181.954Z" fill="#A294EE"/>
<path d="M781.61 183.842C782.093 183.217 782.571 182.587 783.045 181.954H870.01C869.707 182.585 869.401 183.215 869.093 183.842H781.61Z" fill="#A294EE"/>
<path d="M547.571 200.834H454.135C454.513 201.465 454.893 202.095 455.275 202.722H549.554C548.888 202.098 548.227 201.469 547.571 200.834Z" fill="#A294EE"/>
<path d="M764.446 202.722C765.112 202.098 765.773 201.469 766.429 200.834H859.865C859.488 201.465 859.107 202.095 858.725 202.722H764.446Z" fill="#A294EE"/>
<path d="M571.217 219.714H466.684C467.149 220.345 467.617 220.975 468.088 221.602H574.184C573.187 220.983 572.198 220.354 571.217 219.714Z" fill="#A294EE"/>
<path d="M739.816 221.602C740.813 220.983 741.802 220.354 742.783 219.714H847.316C846.851 220.345 846.383 220.975 845.912 221.602H739.816Z" fill="#A294EE"/>
<path d="M611.916 238.593H482.14C482.714 239.226 483.292 239.855 483.874 240.481H618.807C616.489 239.903 614.192 239.273 611.916 238.593Z" fill="#A294EE"/>
<path d="M695.193 240.481C697.511 239.903 699.808 239.273 702.084 238.593H831.86C831.286 239.226 830.708 239.855 830.126 240.481H695.193Z" fill="#A294EE"/>
<path d="M503.534 259.361C502.804 258.736 502.077 258.107 501.355 257.473H812.645C811.923 258.107 811.196 258.736 810.466 259.361H503.534Z" fill="#A294EE"/>
<path d="M525.962 276.353C526.914 276.989 527.872 277.618 528.833 278.241H785.167C786.129 277.618 787.086 276.989 788.038 276.353H525.962Z" fill="#A294EE"/>
<path d="M564.306 297.12C562.865 296.505 561.431 295.875 560.005 295.232H753.995C752.569 295.875 751.135 296.505 749.694 297.12H564.306Z" fill="#A294EE"/>
<path d="M657 316C667.166 316 677.182 315.358 687.009 314.112H626.991C636.818 315.358 646.834 316 657 316Z" fill="#A294EE"/>
<path d="M-124.694 842.888C-123.184 842.243 -121.667 841.614 -120.141 841H56.1412C57.6667 841.614 59.1844 842.243 60.694 842.888H-124.694Z" fill="#A294EE"/>
<path d="M-160.167 861.768C-159.183 861.131 -158.195 860.502 -157.201 859.88H93.2013C94.1948 860.502 95.1832 861.131 96.1666 861.768H-160.167Z" fill="#A294EE"/>
<path d="M-183.231 878.759C-183.98 879.384 -184.725 880.013 -185.466 880.647H121.466C120.725 880.013 119.98 879.384 119.231 878.759H-183.231Z" fill="#A294EE"/>
<path d="M-205.126 899.527C-204.539 898.894 -203.949 898.265 -203.355 897.639H139.355C139.949 898.265 140.539 898.894 141.126 899.527H-205.126Z" fill="#A294EE"/>
<path d="M-219.478 916.519C-219.959 917.146 -220.437 917.775 -220.912 918.407H-82.0493C-80.0571 917.738 -78.0471 917.109 -76.0202 916.519H-219.478Z" fill="#A294EE"/>
<path d="M12.0203 916.519C14.0471 917.109 16.0571 917.738 18.0493 918.407H156.912C156.437 917.775 155.959 917.146 155.479 916.519H12.0203Z" fill="#A294EE"/>
<path d="M-117.301 935.398H-232.56C-232.951 936.026 -233.339 936.655 -233.725 937.286H-120.151C-119.208 936.647 -118.258 936.018 -117.301 935.398Z" fill="#A294EE"/>
<path d="M56.1508 937.286C55.208 936.647 54.2579 936.018 53.3006 935.398H168.56C168.951 936.026 169.339 936.655 169.725 937.286H56.1508Z" fill="#A294EE"/>
<path d="M-141.104 954.278H-243.156C-243.471 954.906 -243.783 955.535 -244.093 956.166H-143.031C-142.394 955.531 -141.752 954.902 -141.104 954.278Z" fill="#A294EE"/>
<path d="M79.0309 956.166C78.394 955.531 77.7518 954.902 77.1042 954.278H179.156C179.471 954.906 179.783 955.535 180.093 956.166H79.0309Z" fill="#A294EE"/>
<path d="M-157.809 973.158H-251.617C-251.866 973.786 -252.112 974.415 -252.356 975.046H-159.207C-158.746 974.413 -158.28 973.783 -157.809 973.158Z" fill="#A294EE"/>
<path d="M95.2069 975.046C94.7457 974.413 94.2799 973.783 93.8095 973.158H187.617C187.866 973.786 188.112 974.415 188.356 975.046H95.2069Z" fill="#A294EE"/>
<path d="M-170 992.037H-258.179C-258.368 992.666 -258.554 993.295 -258.738 993.925H-171.019C-170.684 993.293 -170.344 992.664 -170 992.037Z" fill="#A294EE"/>
<path d="M107.019 993.925C106.684 993.293 106.344 992.664 106 992.037H194.179C194.368 992.666 194.554 993.295 194.738 993.925H107.019Z" fill="#A294EE"/>
<path d="M-178.784 1010.92H-263.004C-263.137 1011.55 -263.267 1012.17 -263.395 1012.8H-179.501C-179.266 1012.17 -179.027 1011.54 -178.784 1010.92Z" fill="#A294EE"/>
<path d="M115.501 1012.8C115.266 1012.17 115.027 1011.54 114.785 1010.92H199.004C199.137 1011.55 199.267 1012.17 199.395 1012.8H115.501Z" fill="#A294EE"/>
<path d="M-184.741 1029.8H-266.202C-266.283 1030.43 -266.361 1031.05 -266.436 1031.68H-185.195C-185.047 1031.05 -184.896 1030.42 -184.741 1029.8Z" fill="#A294EE"/>
<path d="M121.195 1031.68C121.047 1031.05 120.896 1030.42 120.741 1029.8H202.202C202.283 1030.43 202.361 1031.05 202.436 1031.68H121.195Z" fill="#A294EE"/>
<path d="M-188.195 1048.68H-267.851C-267.881 1049.31 -267.908 1049.93 -267.933 1050.56H-188.411C-188.343 1049.93 -188.271 1049.3 -188.195 1048.68Z" fill="#A294EE"/>
<path d="M124.411 1050.56C124.343 1049.93 124.271 1049.3 124.195 1048.68H203.851C203.881 1049.31 203.908 1049.93 203.933 1050.56H124.411Z" fill="#A294EE"/>
<path d="M-189.333 1067.56H-268C-267.98 1068.19 -267.958 1068.82 -267.933 1069.44H-189.324C-189.33 1068.87 -189.333 1068.29 -189.333 1067.71C-189.333 1067.66 -189.333 1067.61 -189.333 1067.56Z" fill="#A294EE"/>
<path d="M125.324 1069.44C125.33 1068.87 125.333 1068.29 125.333 1067.71C125.333 1067.66 125.333 1067.61 125.333 1067.56H204C203.994 1067.75 203.988 1067.94 203.981 1068.13C203.966 1068.57 203.95 1069.01 203.933 1069.44H125.324Z" fill="#A294EE"/>
<path d="M-188.232 1086.44H-266.654C-266.584 1087.07 -266.511 1087.7 -266.436 1088.32H-187.997C-188.079 1087.7 -188.158 1087.07 -188.232 1086.44Z" fill="#A294EE"/>
<path d="M123.997 1088.32C124.079 1087.7 124.158 1087.07 124.232 1086.44H202.654C202.584 1087.07 202.511 1087.7 202.436 1088.32H123.997Z" fill="#A294EE"/>
<path d="M-184.818 1105.32H-263.771C-263.648 1105.95 -263.523 1106.57 -263.395 1107.2H-184.343C-184.505 1106.58 -184.663 1105.95 -184.818 1105.32Z" fill="#A294EE"/>
<path d="M120.343 1107.2C120.505 1106.58 120.663 1105.95 120.818 1105.32H199.771C199.648 1105.95 199.523 1106.57 199.395 1107.2H120.343Z" fill="#A294EE"/>
<path d="M-178.905 1124.2H-259.279C-259.101 1124.83 -258.921 1125.45 -258.738 1126.08H-178.166C-178.416 1125.46 -178.663 1124.83 -178.905 1124.2Z" fill="#A294EE"/>
<path d="M114.166 1126.08C114.416 1125.46 114.663 1124.83 114.905 1124.2H195.279C195.101 1124.83 194.921 1125.45 194.738 1126.08H114.166Z" fill="#A294EE"/>
<path d="M-170.172 1143.07H-253.075C-252.838 1143.71 -252.598 1144.33 -252.356 1144.96H-169.124C-169.477 1144.34 -169.827 1143.71 -170.172 1143.07Z" fill="#A294EE"/>
<path d="M105.124 1144.96C105.477 1144.34 105.827 1143.71 106.172 1143.07H189.075C188.838 1143.71 188.598 1144.33 188.356 1144.96H105.124Z" fill="#A294EE"/>
<path d="M-158.045 1161.95H-245.01C-244.707 1162.59 -244.401 1163.21 -244.093 1163.84H-156.61C-157.093 1163.22 -157.571 1162.59 -158.045 1161.95Z" fill="#A294EE"/>
<path d="M92.6104 1163.84C93.0931 1163.22 93.5712 1162.59 94.0446 1161.95H181.01C180.707 1162.59 180.401 1163.21 180.093 1163.84H92.6104Z" fill="#A294EE"/>
<path d="M-141.429 1180.83H-234.865C-234.487 1181.47 -234.107 1182.09 -233.725 1182.72H-139.446C-140.112 1182.1 -140.773 1181.47 -141.429 1180.83Z" fill="#A294EE"/>
<path d="M75.4461 1182.72C76.1124 1182.1 76.7733 1181.47 77.4288 1180.83H170.865C170.488 1181.47 170.107 1182.09 169.725 1182.72H75.4461Z" fill="#A294EE"/>
<path d="M-117.783 1199.71H-222.316C-221.851 1200.35 -221.383 1200.97 -220.912 1201.6H-114.816C-115.813 1200.98 -116.802 1200.35 -117.783 1199.71Z" fill="#A294EE"/>
<path d="M50.8162 1201.6C51.8127 1200.98 52.8019 1200.35 53.7834 1199.71H158.316C157.851 1200.35 157.383 1200.97 156.912 1201.6H50.8162Z" fill="#A294EE"/>
<path d="M-77.0836 1218.59H-206.86C-206.286 1219.23 -205.708 1219.86 -205.126 1220.48H-70.1931C-72.5107 1219.9 -74.808 1219.27 -77.0836 1218.59Z" fill="#A294EE"/>
<path d="M6.1931 1220.48C8.5107 1219.9 10.808 1219.27 13.0836 1218.59H142.86C142.286 1219.23 141.708 1219.86 141.126 1220.48H6.1931Z" fill="#A294EE"/>
<path d="M-185.466 1239.36C-186.196 1238.74 -186.923 1238.11 -187.645 1237.47H123.645C122.923 1238.11 122.196 1238.74 121.466 1239.36H-185.466Z" fill="#A294EE"/>
<path d="M-163.038 1256.35C-162.086 1256.99 -161.128 1257.62 -160.167 1258.24H96.1666C97.1285 1257.62 98.0856 1256.99 99.0378 1256.35H-163.038Z" fill="#A294EE"/>
<path d="M-124.694 1277.12C-126.135 1276.5 -127.569 1275.88 -128.995 1275.23H64.9954C63.5691 1275.88 62.1353 1276.5 60.694 1277.12H-124.694Z" fill="#A294EE"/>
<path d="M-32 1296C-21.8341 1296 -11.8183 1295.36 -1.99087 1294.11H-62.0091C-52.1817 1295.36 -42.1659 1296 -32 1296Z" fill="#A294EE"/>
</g>
<defs>
<clipPath id="clip0_30_2">
<rect width="1920" height="1080" fill="white"/>
</clipPath>
</defs>
</svg>
