<svg width="1124" height="950" viewBox="0 0 1124 950" fill="none" xmlns="http://www.w3.org/2000/svg">
<g clip-path="url(#clip0_19_274)">
<path d="M719.697 375.896C719.697 375.896 706.312 203.139 754.453 110.657C802.593 18.1753 893.07 -17.8817 1067.53 -3.30061C1242 11.2805 1235.07 199.674 1232.87 236.91C1230.67 274.145 1199.96 438.108 1199.96 438.108L719.697 375.896Z" fill="white"/>
<path d="M796.296 138.008C742.298 244.332 780.308 348.493 785.743 375.897C791.178 403.3 822.151 410.124 822.151 410.124C822.151 410.124 727.823 229.54 819.671 125.186C911.907 20.2686 1031.39 17.5424 1031.39 17.5424L1026.46 11.4918C1026.46 11.4918 850.276 31.7014 796.296 138.008Z" fill="#7983C1"/>
<path d="M1024.41 -5.92114C1032.23 4.31554 1037.9 11.4918 1037.9 11.4918L1035.93 1.99382C1035.93 1.99382 1213.94 181.189 1155.2 400.134L1181.24 404.584C1181.24 404.584 1204.51 159.343 1051.81 -4.47886C1042.42 -5.12378 1033.28 -5.60454 1024.41 -5.92114Z" fill="#7983C1"/>
<path d="M735.404 356.531L745.165 353.823C745.165 353.823 718.061 52.368 949.758 -4.46143C933.801 -3.1318 917.941 -0.817388 902.269 2.46856C856.714 26.9874 791.494 59.1573 749.756 172.992C706.101 292.015 735.404 356.531 735.404 356.531Z" fill="#7983C1"/>
<path d="M625.403 909.822C625.403 909.822 621.657 516.167 632.984 489.977C644.311 463.788 991.69 411.901 1044.9 413.624C1098.1 415.348 1272.74 439.251 1272.74 439.251V1075.79L615.588 1051.73L625.403 909.822Z" fill="#FAE700"/>
<path d="M1087.39 682.487H1060.55V725.65H1087.39V682.487Z" fill="white"/>
<path d="M1137.84 775.937H1113.26V848.561H1137.84V775.937Z" fill="white"/>
<path d="M987.469 834.912H937.13V934.236H987.469V834.912Z" fill="white"/>
<path d="M833.989 605.765H783.878V677.386H833.989V605.765Z" fill="white"/>
<path d="M911.344 481.342H876.396V566.225H911.344V481.342Z" fill="white"/>
<path d="M925.662 629.826H911.344V651.777H925.662V629.826Z" fill="white"/>
<path d="M1099.03 481.342H1073.97V521.937H1099.03V481.342Z" fill="white"/>
<path d="M777.159 558.891H766.676V578.379H777.159V558.891Z" fill="white"/>
<path d="M800.289 203.087C800.289 203.087 843.909 424.705 928.335 489.978C1012.76 555.25 1070.8 439.163 1104.45 368.105C1138.1 297.046 1118.96 181.101 1114.39 174.892C1109.82 168.683 992.904 88.4603 965.395 94.5812C937.886 100.702 892.542 125.907 870.521 135.035C848.499 144.164 792.18 163.723 800.289 203.087Z" fill="#F191B5"/>
<path d="M1114.39 174.892C1109.8 168.7 993.203 88.7066 965.5 94.5637C962.598 121.228 941.808 172.992 957.867 286.651C966.661 348.827 949.582 364.499 957.867 393.802C964.621 417.688 950.004 470.067 953.716 504.611C1024.53 531.628 1074.32 431.741 1104.45 368.052C1138.06 297.046 1118.96 181.101 1114.39 174.892Z" fill="#7983C1"/>
<path d="M1104.45 368.105C1114.32 347.227 1111.91 347.948 1114.39 323.253C1082.84 296.36 1025.5 293.036 1016.17 309.499C1004.81 329.55 1003.25 377.269 1013.92 400.961C1018.18 410.406 1063.65 416.949 1077.75 420.818C1095.11 390.003 1091.23 396.053 1104.45 368.105Z" fill="#5FD065"/>
<path d="M870.521 333.138C859.46 330.503 847.864 331.238 837.225 335.249C849.537 369.863 864.875 405.885 883.202 436.032C890.238 432.515 895.514 426.886 897.009 418.831C902.181 389.897 905.61 341.739 870.521 333.138Z" fill="#BAE431"/>
<path d="M954.613 358.167C947.384 358.695 928.335 358.923 928.335 346.031C928.335 329.515 944.992 269.15 957.867 269.537C970.742 269.924 992.288 342.882 990.688 350.903C989.087 358.923 963.777 357.499 954.613 358.167Z" fill="#FAE700"/>
<path d="M949.371 339.329C949.763 339.919 949.978 340.608 949.989 341.316C950.001 342.024 949.809 342.72 949.436 343.322C949.063 343.924 948.525 344.406 947.885 344.71C947.246 345.015 946.533 345.129 945.831 345.04C945.129 344.951 944.467 344.662 943.924 344.207C943.381 343.752 942.981 343.151 942.77 342.476C942.559 341.8 942.547 341.077 942.735 340.395C942.923 339.712 943.303 339.098 943.83 338.626C944.661 337.991 945.708 337.709 946.745 337.841C947.782 337.972 948.726 338.507 949.371 339.329Z" fill="black"/>
<path d="M968.314 339.611C967.986 340.238 967.846 340.947 967.909 341.652C967.972 342.357 968.237 343.029 968.671 343.588C969.105 344.147 969.691 344.57 970.359 344.805C971.027 345.041 971.748 345.079 972.437 344.917C973.126 344.754 973.754 344.396 974.245 343.887C974.737 343.378 975.072 342.738 975.21 342.043C975.349 341.349 975.284 340.629 975.025 339.971C974.766 339.312 974.323 338.741 973.749 338.327C972.856 337.783 971.786 337.613 970.768 337.854C969.751 338.094 968.869 338.725 968.314 339.611V339.611Z" fill="black"/>
<path d="M959.854 417.002C950.831 416.597 936.179 414.135 925.855 404.777C915.53 395.42 915.477 390.443 920.385 384.902C925.292 379.362 947.63 369.635 958.904 387.963C958.904 387.963 969.018 372.678 983.159 376.512C997.3 380.347 997.23 397.126 984.689 406.871C972.148 416.615 966.555 417.301 959.854 417.002Z" fill="#654EA5"/>
<path d="M911.415 391.586C911.415 391.586 968.156 401.312 998.514 391.973" stroke="black" stroke-linecap="round" stroke-linejoin="round"/>
<path d="M823.964 279.809L808.38 277.118C808.38 277.118 823.102 246.566 865.79 247.991C909.357 249.468 925.592 282.095 925.592 282.095L823.964 279.809Z" fill="#7983C1"/>
<path d="M808.38 277.171C808.38 277.171 870.662 236.716 925.662 282.148C925.662 282.148 865.315 344.026 808.38 277.171Z" fill="white"/>
<path d="M849.977 261.974C845.671 268.815 843.436 276.756 843.54 284.839C843.496 292.1 845.313 299.251 848.816 305.612C863.467 309.791 879.1 308.893 893.175 303.061C895.781 297.342 897.113 291.124 897.08 284.839C897.125 277.567 895.309 270.404 891.803 264.032C878.186 260.252 863.899 259.549 849.977 261.974Z" fill="black"/>
<path d="M854.99 282.342C854.99 284.429 854.371 286.469 853.211 288.205C852.052 289.94 850.404 291.293 848.475 292.092C846.547 292.89 844.425 293.099 842.378 292.692C840.331 292.285 838.45 291.28 836.974 289.804C835.498 288.328 834.493 286.448 834.086 284.401C833.679 282.353 833.888 280.232 834.687 278.303C835.485 276.375 836.838 274.727 838.574 273.567C840.309 272.407 842.349 271.788 844.437 271.788C847.235 271.788 849.92 272.9 851.899 274.879C853.878 276.859 854.99 279.543 854.99 282.342Z" fill="white"/>
<path d="M884.222 234.782C884.222 234.782 837.032 228.995 828.642 223.507C818.089 216.63 818.511 201.345 843.539 203.262C868.568 205.18 909.656 218.354 914.932 225.037C920.209 231.721 920.086 234.957 914.932 236.488C909.779 238.018 884.222 234.782 884.222 234.782Z" fill="black"/>
<path d="M808.379 242.415C808.379 242.415 790.791 164.479 844.489 156.459C898.188 148.438 961.578 147.295 965.395 94.5812C965.395 94.5812 998.638 201.539 1065.49 213.376C1132.35 225.213 1127.76 191.232 1129.29 177.794C1130.82 164.356 1067.73 121.65 1028.05 106.753C988.366 91.8549 972.852 78.1004 954.613 85.347C936.373 92.5936 858.807 113.489 830.154 137.955C801.502 162.421 782.788 202.418 808.379 242.415Z" fill="white"/>
<path d="M1055.17 431.073C1023.52 419.956 988.896 420.852 957.867 433.588L957.99 433.676C863.538 370.638 806.48 397.144 806.48 397.144L802.663 466.655C802.663 466.655 864.927 484.631 885.559 500.302C906.191 515.974 925.662 554.194 931.783 587.613C937.903 621.032 968.842 624.761 986.413 610.637C991.563 606.594 995.295 601.02 997.072 594.719C1008.14 609.546 1041.48 614.471 1038.72 569.743C1038.45 566.021 1037.7 562.349 1036.49 558.82C1049.49 576.866 1067.37 572.698 1070.43 557.061C1073.06 543.676 1067.52 518.049 1002.93 466.585C1012.59 465.828 1024.9 465.934 1032.23 470.102C1048.27 479.231 1068.9 496.679 1087.25 489.819C1098.88 485.598 1117.06 452.338 1055.17 431.073Z" fill="#F191B5"/>
<path d="M924.905 449.506C924.905 449.506 1035.71 520.142 1038.74 569.813" stroke="black" stroke-linecap="round" stroke-linejoin="round"/>
<path d="M806.48 397.126C806.48 397.126 866.845 369.072 966.169 439.339C996.738 460.956 1018.67 478.967 1034.27 493.988" stroke="black" stroke-linecap="round" stroke-linejoin="round"/>
<path d="M910.764 462.451C911.538 463.612 956.231 495.307 979.536 533.123C1002.84 570.939 1003.98 596.548 986.414 610.69" stroke="black" stroke-linecap="round" stroke-linejoin="round"/>
<path d="M1032.25 470.26C1024.92 466.092 1012.6 465.986 1002.95 466.743" stroke="black" stroke-linecap="round" stroke-linejoin="round"/>
<path d="M957.867 433.57C988.898 420.839 1023.52 419.951 1055.17 431.073C1117.06 452.355 1098.88 485.598 1087.27 489.995" stroke="black" stroke-linecap="round" stroke-linejoin="round"/>
<path d="M1056.7 558.891C1056.7 558.891 1045.25 542.674 1051.74 536.183C1058.23 529.693 1065 539.983 1067.39 547.546C1070.45 557.202 1060.2 564.748 1056.7 558.891Z" fill="#EB2C61"/>
<path d="M1024.7 584.095C1021.06 583.497 1019.83 583.093 1018.6 570.306C1017.04 554.265 1031.49 557.607 1033.78 568.301C1036.07 578.995 1032.25 585.344 1024.7 584.095Z" fill="#EB2C61"/>
<path d="M985.64 593.101C985.64 593.101 979.572 594.86 976.089 580.12C972.255 563.78 985.323 560.474 991.761 574.844C998.198 589.214 988.472 593.101 985.64 593.101Z" fill="#EB2C61"/>
<path d="M1099.03 469.768C1098.86 462.891 1095.52 455.011 1086.44 447.395C1081.38 449.383 1073.85 453.604 1076.19 460.604C1079.07 469.188 1091.31 473.479 1099.03 469.768Z" fill="#EB2C61"/>
<path d="M1264.95 368.105C1248.91 335.636 1208.16 289.588 1175.25 252.353C1141.05 213.851 1041.73 107.984 1011.27 146.134C979.307 186.236 1067.55 237.824 1067.55 237.824C1018.85 211.213 972.975 209.454 957.866 212.971C936.601 217.931 929.109 255.747 982.596 260.461C1036.08 265.175 1065.26 280.899 1065.26 280.899C1014.06 263.311 961.666 274.18 960.047 292.701C957.761 318.874 976.669 324.977 1034.27 323.834C1064.49 323.236 1089.38 335.39 1106.25 347.086C1105.84 346.91 1065.58 327.51 1006.66 336.251C947.436 345.046 968.771 377.515 984.654 382.088C1000.54 386.661 1029.19 375.14 1062.43 375.756C1095.67 376.371 1109.41 398.146 1130.24 432.902C1151.06 467.657 1172.45 479.512 1182.77 487.533C1193.1 495.553 1219.13 522.833 1214.59 639.852C1210.05 756.87 1317.24 740.811 1336.54 727.057C1355.83 713.303 1264.95 368.105 1264.95 368.105Z" fill="#F191B5"/>
<path d="M1032.64 187.397C1032.64 187.397 1014.49 178.234 1016.3 161.014C1018.11 143.795 1035.64 142.669 1047.53 157.496C1059.42 172.324 1053.64 200.395 1032.64 187.397Z" fill="#EB2C61"/>
<path d="M972.975 246.232C972.975 246.232 951.869 246.619 954.824 229.804C957.779 212.989 984.725 224.07 987.099 233.621C989.474 243.171 978.059 246.707 972.975 246.232Z" fill="#EB2C61"/>
<path d="M987.469 308.232C987.469 308.232 974.383 314.23 971.041 300.106C967.699 285.982 984.883 285.209 991.76 287.882C998.637 290.556 1000.38 305.295 987.469 308.232Z" fill="#EB2C61"/>
<path d="M998.444 363.127C998.444 363.127 982.913 374.014 978.762 360.84C974.611 347.666 991.285 344.799 997.072 345.943C1002.86 347.086 1006.85 359.31 998.444 363.127Z" fill="#EB2C61"/>
<path d="M960.048 292.842C962.334 266.67 1066.06 255.783 1124.5 318.821" stroke="black" stroke-linecap="round" stroke-linejoin="round"/>
<path d="M1130.24 368.105C1130.24 368.105 1091.89 322.831 1034.27 323.974" stroke="black" stroke-linecap="round" stroke-linejoin="round"/>
<path d="M1126.61 284.399C1061.29 213.305 979.149 208.029 957.866 213.006C957.866 213.006 942.511 215.662 941.808 229.997C941.227 241.94 946.082 250.295 965.236 257.33" stroke="black" stroke-linecap="round" stroke-linejoin="round"/>
<path d="M1011.27 146.134C979.307 186.236 1067.55 237.824 1067.55 237.824" stroke="black" stroke-linecap="round" stroke-linejoin="round"/>
<path d="M554.467 -18.1279C540.172 -18.1256 525.973 -15.7908 512.43 -11.2155C476.461 -78.2992 384.982 -126 277.778 -126C191.135 -126 114.747 -94.8326 69.6496 -47.466C64.3926 -48.0424 59.1083 -48.336 53.8197 -48.3454C26.2626 -48.3572 -0.724281 -40.4962 -23.9643 -25.6877C-47.2044 -10.8792 -65.7303 10.2604 -77.3612 35.2427C-88.9921 60.2249 -93.244 88.01 -89.6163 115.327C-85.9886 142.645 -74.6323 168.357 -56.8842 189.438C-66.7321 189.953 -76.3707 192.476 -85.2089 196.85C-94.0471 201.224 -101.899 207.358 -108.281 214.875C-114.664 222.392 -119.444 231.133 -122.328 240.564C-125.212 249.994 -126.139 259.914 -125.051 269.715C-123.964 279.516 -120.886 288.992 -116.006 297.561C-111.126 306.131 -104.546 313.612 -96.6711 319.548C-88.796 325.483 -79.7913 329.747 -70.2093 332.078C-60.6274 334.409 -50.6703 334.758 -40.9488 333.103C-48.5839 347.676 -50.5102 364.572 -46.3512 380.489C-42.1922 396.406 -32.2468 410.201 -18.4589 419.176C-4.67096 428.151 11.9684 431.661 28.2068 429.021C44.4453 426.382 59.1157 417.781 69.3506 404.9C87.3708 409.959 106.003 412.504 124.72 412.464C178.278 412.464 225.68 392.219 254.737 361.122C264.078 372.337 274.873 382.257 286.836 390.618C286.024 394.687 285.437 398.797 285.077 402.931C274.68 403.032 264.474 405.738 255.392 410.8C246.31 415.861 238.641 423.118 233.085 431.907C227.53 440.696 224.265 450.737 223.589 461.113C222.914 471.488 224.848 481.868 229.217 491.303C233.586 500.738 240.249 508.928 248.598 515.125C256.947 521.322 266.716 525.329 277.012 526.778C287.308 528.228 297.803 527.074 307.538 523.423C317.274 519.772 325.939 513.74 332.743 505.878C353.738 520.893 379.179 528.397 404.961 527.18C430.744 525.963 455.365 516.096 474.852 499.17C494.339 482.244 507.556 459.246 512.369 433.887C517.183 408.529 513.313 382.288 501.384 359.398C526.101 328.838 539.525 290.69 539.394 251.385C539.394 248.853 539.394 246.32 539.235 243.805C557.012 245.872 575.024 244.286 592.166 239.144C609.308 234.002 625.219 225.413 638.924 213.903C652.628 202.394 663.837 188.206 671.863 172.21C679.889 156.214 684.563 138.747 685.599 120.88C686.634 103.014 684.009 85.124 677.884 68.308C671.76 51.492 662.265 36.1043 649.982 23.0885C637.698 10.0727 622.886 -0.296809 606.453 -7.38425C590.019 -14.4717 572.311 -18.1276 554.415 -18.1279H554.467Z" fill="#F191B5"/>
<path d="M-47.7205 124.746L1.17643 71.6454" stroke="black" stroke-linecap="round" stroke-linejoin="round"/>
<path d="M-10.6958 84.5732C-10.6958 84.5732 -7.52982 120.419 35.1758 114.263C35.1758 114.246 28.7911 78.9272 -10.6958 84.5732Z" fill="#3C8F3E"/>
<path d="M310.71 41.7438C315.578 25.3749 306.254 8.15952 289.885 3.29217C273.516 -1.57518 256.301 7.74867 251.433 24.1176C246.566 40.4865 255.89 57.7019 272.259 62.5693C288.628 67.4366 305.843 58.1128 310.71 41.7438Z" fill="#EB2C61"/>
<path d="M288.665 58.3306C282.685 59.8433 277.127 58.2427 276.23 54.7249C275.333 51.2072 279.449 47.1266 285.412 45.5963C291.374 44.0661 296.95 45.5963 297.847 49.202C298.744 52.8077 294.628 56.8004 288.665 58.3306Z" fill="white"/>
<path d="M302.051 34.7266L354.412 51.9812" stroke="black" stroke-linecap="round" stroke-linejoin="round"/>
<path d="M341.678 47.7952C341.678 47.7952 317.757 61.321 335.522 89.0761C335.522 89.0761 358.071 73.4924 341.678 47.7952Z" fill="#3C8F3E"/>
<path d="M394.48 181.276L401.92 68.4266L451.626 121.123" stroke="black" stroke-linecap="round" stroke-linejoin="round"/>
<path d="M401.92 68.4265C401.92 68.4265 406.51 -9.33358 472.574 -6.66009C472.574 -6.66009 474.122 56.7476 401.92 68.4265Z" fill="#3C8F3E"/>
<path d="M430.047 190.493C433.457 169.394 419.117 149.525 398.017 146.115C376.918 142.705 357.049 157.045 353.639 178.144C350.229 199.244 364.569 219.113 385.669 222.523C406.768 225.933 426.637 211.593 430.047 190.493Z" fill="#EB2C61"/>
<path d="M419.878 169.088C421.549 175.402 419.386 181.4 415.041 182.631C410.697 183.862 405.772 179.606 404.083 173.291C402.395 166.977 404.576 160.979 408.938 159.748C413.3 158.517 418.189 162.756 419.878 169.088Z" fill="white"/>
<path d="M423.677 191.021C424.539 194.222 423.114 197.37 420.529 198.056C417.943 198.742 415.129 196.719 414.285 193.536C413.44 190.352 414.847 187.186 417.433 186.5C420.019 185.814 422.833 187.837 423.677 191.021Z" fill="white"/>
<path d="M481.997 151.563C491.359 142.2 491.359 127.021 481.997 117.659C472.635 108.297 457.455 108.297 448.093 117.659C438.731 127.021 438.731 142.2 448.093 151.563C457.455 160.925 472.635 160.925 481.997 151.563Z" fill="#EB2C61"/>
<path d="M471.695 116.233C475.969 118.097 478.572 121.615 477.499 124.078C476.426 126.54 472.064 127.015 467.79 125.15C463.516 123.286 460.93 119.768 462.003 117.306C463.076 114.843 467.403 114.263 471.695 116.233Z" fill="white"/>
<path d="M86.2185 51.9635C92.2315 51.9635 97.106 46.0653 97.106 38.7894C97.106 31.5136 92.2315 25.6154 86.2185 25.6154C80.2055 25.6154 75.3311 31.5136 75.3311 38.7894C75.3311 46.0653 80.2055 51.9635 86.2185 51.9635Z" fill="#EB2C61"/>
<path d="M365.001 302.182C370.849 302.182 375.589 297.441 375.589 291.593C375.589 285.746 370.849 281.005 365.001 281.005C359.153 281.005 354.412 285.746 354.412 291.593C354.412 297.441 359.153 302.182 365.001 302.182Z" fill="#EB2C61"/>
<path d="M537.142 114.949C541.766 114.949 545.515 111.201 545.515 106.577C545.515 101.953 541.766 98.2044 537.142 98.2044C532.518 98.2044 528.77 101.953 528.77 106.577C528.77 111.201 532.518 114.949 537.142 114.949Z" fill="#EB2C61"/>
<path d="M-120.274 476.803C-120.274 476.803 -25.4882 398.938 97.053 472.916C219.594 546.895 310.018 518.647 348.01 649.737C386.002 780.826 246.294 1052.29 203.782 1064.83C161.27 1077.37 -164 998.98 -164 998.98L-120.274 476.803Z" fill="black"/>
<path d="M177.399 511.313C155.072 513.018 132.626 512.292 110.456 509.149C44.6034 499.563 1.52842 473.567 -28.4957 441.907C-35.2123 442.573 -41.8882 443.6 -48.4941 444.985C-26.2619 470.454 5.16931 496.52 49.2644 516.273C103.579 540.616 164.682 537.08 216.358 525.366C203.993 521.004 190.995 516.501 177.399 511.313Z" fill="#654EA5"/>
<path d="M-122.244 500.337L-125.129 534.846C-90.7955 530.115 -24.7672 526.615 26.8032 557.712C99.8143 601.684 108.521 675.363 24.9036 762.973C-31.3454 821.702 -108.173 850.39 -152.603 862.878L-155.311 895.259C-131.531 892.603 -98.0245 885.233 -65.4501 865.657C-5.64815 829.688 191.047 705.036 95.2588 587.754C23.1799 499.423 -77.0763 496.433 -122.244 500.337Z" fill="#654EA5"/>
<path d="M188.374 574.386C188.374 574.386 108.908 554.528 80.6425 531.61C52.3773 508.692 29.4591 475.045 30.2154 433.043C30.9718 391.041 13.2247 287.056 22.8633 200.87C32.502 114.685 56.9504 112.152 108.908 100.685C160.865 89.2166 304.601 68.6025 319.024 100.685C333.446 132.767 325.127 369.635 322.84 420.801C320.554 471.967 309.86 502.554 287.663 518.595C265.466 534.636 212.048 571.326 188.374 574.386Z" fill="#FAE700"/>
<path d="M-2.48205 266.793C-4.9164 266.545 -7.22156 265.577 -9.10329 264.013C-10.985 262.448 -12.358 260.359 -13.0469 258.011C-13.7358 255.663 -13.7095 253.163 -12.9712 250.83C-12.2329 248.497 -10.8162 246.437 -8.90196 244.913C-6.72095 243.224 44.0931 204.177 105.847 238.563C107.307 239.324 108.6 240.37 109.648 241.64C110.697 242.909 111.48 244.376 111.952 245.953C112.424 247.53 112.574 249.186 112.395 250.823C112.215 252.46 111.709 254.043 110.907 255.481C110.105 256.919 109.022 258.181 107.724 259.193C106.425 260.205 104.936 260.946 103.346 261.373C101.756 261.799 100.097 261.903 98.4657 261.676C96.8349 261.45 95.266 260.9 93.8518 260.057C46.749 233.673 7.94811 263.029 6.31235 264.278C3.81264 266.215 0.663637 267.115 -2.48205 266.793Z" fill="#654EA5"/>
<path d="M221.669 216.929C218.945 216.477 216.419 215.22 214.415 213.319C212.412 211.419 211.024 208.962 210.429 206.265C209.835 203.568 210.062 200.755 211.081 198.189C212.1 195.622 213.864 193.42 216.147 191.865C218.662 190.106 278.622 150.144 345.213 193.43C348.287 195.429 350.441 198.567 351.202 202.154C351.962 205.742 351.266 209.484 349.267 212.558C347.269 215.632 344.13 217.786 340.543 218.547C336.956 219.307 333.214 218.611 330.14 216.612C279.326 183.58 233.63 213.446 231.642 214.73C228.718 216.704 225.152 217.49 221.669 216.929Z" fill="#654EA5"/>
<path d="M90.9319 338.679H30.6199C22.7049 338.655 15.1221 335.495 9.53356 329.89C3.94505 324.285 0.806851 316.693 0.806885 308.778C0.830085 300.878 3.97855 293.308 9.56455 287.722C15.1506 282.136 22.7201 278.988 30.6199 278.965H90.9319C98.8469 278.965 106.439 282.103 112.044 287.691C117.649 293.28 120.81 300.863 120.833 308.778V308.778C120.833 316.708 117.683 324.313 112.075 329.921C106.468 335.528 98.8621 338.679 90.9319 338.679Z" fill="white"/>
<path d="M35.7559 297.679V319.384C35.7593 323.049 36.5457 326.671 38.0623 330.008C39.579 333.345 41.791 336.319 44.5503 338.731H78.6198C81.379 336.319 83.591 333.345 85.1077 330.008C86.6244 326.671 87.4108 323.049 87.4142 319.384V297.679C87.4175 294.191 86.7095 290.738 85.3335 287.533C83.9575 284.327 81.9424 281.436 79.4113 279.035H43.7588C41.2276 281.436 39.2125 284.327 37.8365 287.533C36.4605 290.738 35.7526 294.191 35.7559 297.679V297.679Z" fill="black"/>
<path d="M47.6461 298.136C47.6461 300.571 46.924 302.952 45.5711 304.977C44.2182 307.001 42.2953 308.579 40.0456 309.511C37.7958 310.443 35.3202 310.687 32.9319 310.212C30.5436 309.737 28.3498 308.564 26.6279 306.842C24.906 305.121 23.7334 302.927 23.2583 300.538C22.7832 298.15 23.0271 295.674 23.9589 293.425C24.8908 291.175 26.4689 289.252 28.4936 287.899C30.5183 286.546 32.8988 285.824 35.3339 285.824C38.5993 285.824 41.7309 287.121 44.0399 289.43C46.3489 291.739 47.6461 294.871 47.6461 298.136V298.136Z" fill="white"/>
<path d="M320.132 275.658H240.543C234.515 275.63 228.742 273.223 224.48 268.961C220.217 264.699 217.81 258.926 217.783 252.898V252.898C217.783 246.862 220.181 241.072 224.449 236.804C228.717 232.536 234.506 230.138 240.543 230.138H320.132C326.168 230.138 331.957 232.536 336.226 236.804C340.494 241.072 342.892 246.862 342.892 252.898C342.892 258.934 340.494 264.723 336.226 268.992C331.957 273.26 326.168 275.658 320.132 275.658Z" fill="white"/>
<path d="M254.244 244.367V260.936C254.244 266.793 257.762 272.052 263.338 275.658H298.955C304.513 272.14 308.031 266.863 308.031 260.936V244.367C308.031 238.756 304.83 233.814 299.694 230.138H262.581C257.463 233.726 254.244 238.756 254.244 244.367Z" fill="black"/>
<path d="M253.717 254.164C260.856 254.164 266.644 249.928 266.644 244.702C266.644 239.476 260.856 235.239 253.717 235.239C246.577 235.239 240.789 239.476 240.789 244.702C240.789 249.928 246.577 254.164 253.717 254.164Z" fill="white"/>
<path d="M342.223 247.481C341.014 242.534 338.18 238.136 334.175 234.992C330.169 231.847 325.224 230.138 320.132 230.138H240.542C235.443 230.127 230.489 231.831 226.475 234.977C222.462 238.123 219.623 242.527 218.416 247.481H342.223Z" fill="#BAE431"/>
<path d="M156.433 235.52L148.254 307.634C148.016 309.754 148.229 311.899 148.877 313.931C149.525 315.962 150.594 317.835 152.015 319.425C153.436 321.015 155.177 322.288 157.123 323.159C159.069 324.031 161.177 324.483 163.31 324.484H173.23C177.245 324.48 181.094 322.883 183.933 320.044C186.772 317.205 188.369 313.355 188.374 309.34V236.206C188.374 235.408 188.217 234.617 187.91 233.88C187.604 233.142 187.156 232.473 186.591 231.909C186.025 231.345 185.354 230.899 184.616 230.595C183.878 230.291 183.087 230.136 182.288 230.138H162.466C160.976 230.141 159.538 230.69 158.426 231.682C157.314 232.674 156.605 234.04 156.433 235.52V235.52Z" fill="#BAE431"/>
<path d="M191.048 338.679C174.62 336.568 170.258 354.509 170.258 354.509C170.258 354.509 169.273 342.478 153.988 342.847C138.703 343.217 134.376 361.562 134.376 361.562C134.376 384.427 150.435 402.825 170.258 402.825C189.764 402.825 205.629 384.92 206.104 362.635C206.104 362.635 207.476 340.789 191.048 338.679Z" fill="#7983C1"/>
<path d="M166.986 384.709C172.941 384.807 178.692 382.541 182.978 378.407C187.264 374.272 189.736 368.607 189.852 362.652H144.05C144.17 368.617 146.653 374.291 150.954 378.427C155.255 382.562 161.021 384.822 166.986 384.709Z" fill="white"/>
<path d="M215.32 297.609C215.324 298.518 215.057 299.407 214.555 300.164C214.053 300.921 213.337 301.512 212.499 301.863C211.66 302.213 210.736 302.306 209.845 302.131C208.953 301.956 208.134 301.52 207.49 300.879C206.846 300.237 206.407 299.419 206.228 298.529C206.05 297.638 206.14 296.714 206.487 295.874C206.834 295.034 207.422 294.316 208.177 293.811C208.933 293.305 209.821 293.036 210.73 293.036C211.944 293.036 213.109 293.517 213.969 294.374C214.83 295.231 215.316 296.394 215.32 297.609V297.609Z" fill="#EB2C61"/>
<path d="M236.005 325.03C236.005 326.825 235.472 328.579 234.475 330.072C233.478 331.564 232.06 332.728 230.402 333.415C228.744 334.102 226.919 334.281 225.158 333.931C223.398 333.581 221.781 332.717 220.511 331.447C219.242 330.178 218.378 328.561 218.027 326.8C217.677 325.04 217.857 323.215 218.544 321.557C219.231 319.898 220.394 318.481 221.887 317.483C223.379 316.486 225.134 315.954 226.929 315.954C229.336 315.954 231.644 316.91 233.346 318.612C235.048 320.314 236.005 322.623 236.005 325.03Z" fill="#EB2C61"/>
<path d="M252.837 299.051C252.84 300.246 252.489 301.415 251.827 302.41C251.166 303.404 250.224 304.18 249.121 304.639C248.018 305.098 246.803 305.219 245.631 304.987C244.459 304.754 243.383 304.179 242.538 303.335C241.693 302.49 241.118 301.413 240.886 300.241C240.654 299.069 240.775 297.855 241.234 296.752C241.692 295.649 242.468 294.707 243.463 294.045C244.458 293.384 245.627 293.032 246.822 293.036C248.417 293.036 249.947 293.67 251.075 294.798C252.203 295.926 252.837 297.456 252.837 299.051V299.051Z" fill="#EB2C61"/>
<path d="M24.9039 421.68C41.8841 421.68 55.6492 407.915 55.6492 390.935C55.6492 373.955 41.8841 360.19 24.9039 360.19C7.92381 360.19 -5.84131 373.955 -5.84131 390.935C-5.84131 407.915 7.92381 421.68 24.9039 421.68Z" fill="#BAE431"/>
<path d="M43.0308 394.751C45.1439 385.798 39.599 376.827 30.6458 374.713C21.6926 372.6 12.7216 378.145 10.6084 387.098C8.49527 396.052 14.0402 405.023 22.9934 407.136C31.9466 409.249 40.9176 403.704 43.0308 394.751Z" fill="#7983C1"/>
<path d="M341.977 338.661H314.416C299.66 338.661 287.698 350.623 287.698 365.378V406.307C287.698 421.063 299.66 433.025 314.416 433.025H341.977C356.733 433.025 368.695 421.063 368.695 406.307V365.378C368.695 350.623 356.733 338.661 341.977 338.661Z" fill="#BAE431"/>
<path d="M322.841 410.107C336.761 410.107 348.045 397.452 348.045 381.842C348.045 366.231 336.761 353.576 322.841 353.576C308.92 353.576 297.636 366.231 297.636 381.842C297.636 397.452 308.92 410.107 322.841 410.107Z" fill="#7983C1"/>
<path d="M266.644 315.954C234.14 330.271 224.273 417.002 236.743 459.865C245.415 489.766 285.992 491.807 309.737 490.329C317.335 473.321 321.504 450.561 322.841 420.818C323.667 402.385 325.286 359.838 326.358 311.469C309.245 308.936 285.253 307.757 266.644 315.954Z" fill="#EB2C61"/>
<path d="M75.3134 358.958C69.6498 354.561 40.769 347.596 24.3059 347.367C27.2256 383.125 30.4972 413.748 30.2333 432.462C44.4979 433.007 62.4033 431.389 67.6799 420.853C76.8261 402.473 82.2258 364.235 75.3134 358.958Z" fill="#EB2C61"/>
<path d="M313.131 974.074C309.86 972.315 380.901 740.741 573.833 667.431C766.764 594.121 987.557 899.093 1013.55 967.109C1039.55 1035.12 313.131 974.074 313.131 974.074Z" fill="#BAE431"/>
<path d="M573.833 667.431C538.212 681.15 505.018 700.485 475.511 724.7C493.399 742.94 530.494 766.667 600.709 762.34C674.951 757.785 722.88 714.428 746.696 685.829C690.482 657.194 630.944 645.744 573.833 667.431Z" fill="#3C8F3E"/>
<path d="M573.833 667.431C545.872 678.149 519.397 692.4 495.052 709.838C506.379 722.818 530.617 740.653 578.23 740.161C641.901 739.528 692.75 698.897 709.97 669.806C664.943 653.8 618.631 650.405 573.833 667.431Z" fill="white"/>
<path d="M742.123 538.91C765.184 538.91 783.878 523.113 783.878 503.626C783.878 484.14 765.184 468.343 742.123 468.343C719.061 468.343 700.367 484.14 700.367 503.626C700.367 523.113 719.061 538.91 742.123 538.91Z" fill="white"/>
<path d="M738.306 524.927C753.984 524.927 766.694 515.39 766.694 503.626C766.694 491.863 753.984 482.326 738.306 482.326C722.627 482.326 709.917 491.863 709.917 503.626C709.917 515.39 722.627 524.927 738.306 524.927Z" fill="#7983C1"/>
<path d="M549.085 629.404C549.085 629.404 565.513 695.872 573.921 700.463C582.328 705.053 672.418 695.872 675.531 690.912C678.645 685.952 684.695 601.895 684.695 601.895L549.085 629.404Z" fill="white"/>
<path d="M558.707 664.687C577.685 673.816 651.224 659.569 681.617 639.535C683.376 619.783 684.607 601.895 684.607 601.895L549.085 629.404C549.085 629.404 553.342 646.993 558.707 664.687Z" fill="#7983C1"/>
<path d="M730.25 389.88C730.25 389.88 732.554 597.128 722.81 616.124C713.066 635.12 587.781 641.435 565.074 641.435C542.366 641.435 531.022 630.881 525.78 616.124C520.539 601.367 478.132 414.521 478.994 397.32C479.856 380.118 614.516 335.618 657.485 338.678C700.455 341.739 730.25 389.88 730.25 389.88Z" fill="white"/>
<path d="M695.072 410.124C659.895 418.338 652.349 447.184 653.686 481.341C655.023 515.499 658.646 525.102 649.482 531.979C640.318 538.857 621.34 526.263 616.327 544.591C611.315 562.918 607.076 561.775 607.656 568.089C608.236 574.404 611.649 601.895 611.649 601.895C623.081 620.521 611.315 632.007 600.726 639.992C646.123 637.196 715.669 630.09 722.828 616.124C730.672 600.84 730.707 463.752 730.426 410.705C720.875 407.662 708.88 406.905 695.072 410.124Z" fill="#F191B5"/>
<path d="M566.955 565.345C566.955 565.345 591.404 576.673 615.078 578.203C638.753 579.733 653.668 570.816 653.668 565.345C653.668 559.875 620.76 560.632 611.631 557.202C602.502 553.772 587.587 547.458 581.466 551.186C575.345 554.915 559.639 557.448 566.955 565.345Z" fill="#654EA5"/>
<path d="M591.404 589.372C592.231 590.251 604.772 606.961 616.996 605.8C629.22 604.639 635.71 594.719 631.894 589.372C628.077 584.025 600.568 583.638 595.608 582.882C590.648 582.125 586.937 584.57 591.404 589.372Z" fill="#654EA5"/>
<path d="M610.967 525.136C613.753 523.871 614.528 519.576 612.697 515.543C610.867 511.509 607.124 509.264 604.338 510.529C601.551 511.793 600.776 516.088 602.607 520.122C604.438 524.156 608.18 526.4 610.967 525.136Z" fill="black"/>
<path d="M730.338 481.658C719.239 480.356 706.312 482.731 698.168 497.031C681.564 526.263 684.994 569.813 706.769 574.421C715.194 576.18 722.493 573.12 728.298 568.687C729.511 543.271 730.092 511.418 730.338 481.658Z" fill="#EB2C61"/>
<path d="M574.959 519.386C582.997 479.266 574.396 454.624 533.713 448.327C513.996 445.267 498.834 447.747 488.703 454.167C495.404 486.952 504.445 527.723 511.973 560.298C514.774 562.077 517.863 563.357 521.102 564.079C545.181 569.233 566.92 559.471 574.959 519.386Z" fill="#F191B5"/>
<path d="M500.364 542.867V676.19" stroke="black" stroke-linecap="round" stroke-linejoin="round"/>
<path d="M500.365 574.879C505.144 574.879 509.018 571.004 509.018 566.225C509.018 561.446 505.144 557.571 500.365 557.571C495.585 557.571 491.711 561.446 491.711 566.225C491.711 571.004 495.585 574.879 500.365 574.879Z" fill="#FAE700"/>
<path d="M500.364 605.765C505.338 605.765 509.37 601.733 509.37 596.759C509.37 591.786 505.338 587.754 500.364 587.754C495.391 587.754 491.359 591.786 491.359 596.759C491.359 601.733 495.391 605.765 500.364 605.765Z" fill="#FAE700"/>
<path d="M500.364 656.139C510.914 656.139 519.466 647.587 519.466 637.038C519.466 626.488 510.914 617.936 500.364 617.936C489.815 617.936 481.263 626.488 481.263 637.038C481.263 647.587 489.815 656.139 500.364 656.139Z" fill="#FAE700"/>
<path d="M500.364 682.487C503.842 682.487 506.661 679.668 506.661 676.19C506.661 672.713 503.842 669.893 500.364 669.893C496.887 669.893 494.068 672.713 494.068 676.19C494.068 679.668 496.887 682.487 500.364 682.487Z" fill="#FAE700"/>
<path d="M747.311 530.414V696.628" stroke="black" stroke-linecap="round" stroke-linejoin="round"/>
<path d="M769.732 703.183C772.803 691.224 765.597 679.041 753.639 675.97C741.68 672.9 729.497 680.105 726.426 692.064C723.356 704.022 730.561 716.206 742.52 719.276C754.478 722.347 766.662 715.142 769.732 703.183Z" fill="#654EA5"/>
<path d="M749.808 747.777C754.014 747.777 757.424 744.367 757.424 740.161C757.424 735.954 754.014 732.545 749.808 732.545C745.602 732.545 742.192 735.954 742.192 740.161C742.192 744.367 745.602 747.777 749.808 747.777Z" fill="#654EA5"/>
<path d="M509.387 394.136C509.387 394.136 646.791 381.824 673.544 381.824C700.296 381.824 722.265 397.847 723.883 429.56C725.501 461.273 730.074 505.016 730.074 505.016C730.074 505.016 788.909 524.698 818.018 517.821C847.128 510.943 860.812 495.993 843.997 413.308C827.182 330.623 778.056 265.879 680.421 235.221C582.786 204.564 510.918 251.157 484.183 266.881C457.448 282.606 375.554 315.954 380.233 447.026C382.959 525.138 406.405 547.651 448.706 557.589C491.007 567.527 506.872 517.856 506.872 517.856L509.387 394.136Z" fill="black"/>
<path d="M598.334 244.719C585.667 233.028 571.169 223.491 555.417 216.489C564.511 213.78 577.843 195.699 574.396 176.791C570.948 157.883 545.181 149.282 525.147 173.502C505.113 197.722 470.129 189.983 448.636 213.956C427.142 237.93 438.082 277.276 438.082 277.276C427.195 292.825 419.526 309.921 418.735 324.959C416.835 362.107 435.163 409.28 430.66 430.404C426.157 451.528 333.534 620.17 333.534 620.17L430.66 679.075C430.66 679.075 519.958 536.201 539.834 472.934C559.709 409.667 510.038 370.409 502.387 353.594C494.736 336.779 510.794 299.35 522.262 338.52C533.73 377.691 549.754 385.693 568.855 373.698C578.881 367.419 580.903 346.646 574.73 325.487H575.398C584.579 314.459 578.23 297.538 578.23 297.538C577.456 294.953 576.471 292.367 575.486 289.782C614.392 315.901 621.674 267.25 598.334 244.719Z" fill="white"/>
<path d="M554.45 158.71C547.415 158.059 539.447 160.363 531.796 166.695C533.66 169.527 537.319 172.816 544.319 172.992C553.237 173.186 556.121 164.848 554.45 158.71Z" fill="#654EA5"/>
<path d="M609.503 263.012C603.576 263.223 598.106 266.758 599.178 275.412C599.293 276.773 599.677 278.098 600.309 279.309C600.941 280.52 601.808 281.594 602.859 282.466C603.91 283.339 605.125 283.994 606.431 284.392C607.738 284.79 609.111 284.924 610.47 284.787C612.254 277.587 611.918 270.025 609.503 263.012V263.012Z" fill="#654EA5"/>
<path d="M578.23 297.609C578.228 297.568 578.228 297.527 578.23 297.486C575.926 298.33 572.813 300.757 574.097 307.881C574.395 309.536 575.074 311.099 576.082 312.445C577.09 313.792 578.397 314.885 579.901 315.637C580.794 309.581 580.221 303.398 578.23 297.609V297.609Z" fill="#654EA5"/>
<path d="M577.913 342.214C573.622 342.214 565.074 343.375 563.842 351.483C562.875 357.551 569.383 362.353 575.328 365.449C577.843 359.433 578.722 351.272 577.913 342.214Z" fill="#654EA5"/>
<path d="M418.735 325.03C420.634 287.882 464.694 238.106 495.387 230.138C526.079 222.17 566.973 260.039 578.23 297.609C578.23 297.609 584.58 314.529 575.398 325.557" stroke="black" stroke-linecap="round" stroke-linejoin="round"/>
<path d="M451.626 308.848C451.626 308.848 497.04 257.647 537.529 277.347C555.259 285.965 567.114 303.185 573.27 320.844C581.167 343.533 579.602 366.944 568.855 373.61" stroke="black" stroke-linecap="round" stroke-linejoin="round"/>
<path d="M459.189 252.898C459.189 252.898 472.979 211.67 503.354 206.499C533.73 201.328 576.559 223.683 598.334 244.719" stroke="black" stroke-linecap="round" stroke-linejoin="round"/>
<path d="M574.396 176.703C577.914 195.611 564.511 213.64 555.417 216.401" stroke="black" stroke-linecap="round" stroke-linejoin="round"/>
<path d="M19.6624 918.793L86.0601 946.425L325.127 1032.86L474.052 631.585L329.331 551.169C237.764 643.897 19.6624 918.793 19.6624 918.793Z" fill="#7983C1"/>
<path d="M299.43 800.314C294.347 812.257 278.798 817.077 264.692 811.096C250.586 805.116 243.269 790.553 248.334 778.61C253.4 766.667 268.966 761.848 283.072 767.845C297.179 773.843 304.496 788.372 299.43 800.314Z" fill="#F191B5"/>
<path d="M276.308 914.773C281.383 902.829 274.06 888.286 259.952 882.292C245.844 876.298 230.293 881.121 225.218 893.066C220.143 905.01 227.466 919.552 241.574 925.547C255.682 931.541 271.233 926.717 276.308 914.773Z" fill="#F191B5"/>
<path d="M376.955 712.854C382.03 700.91 374.707 686.368 360.599 680.373C346.491 674.379 330.94 679.203 325.865 691.147C320.79 703.091 328.113 717.634 342.221 723.628C356.329 729.622 371.88 724.799 376.955 712.854Z" fill="#F191B5"/>
<path d="M405.701 602.792C406.803 600.172 407.343 597.35 407.284 594.508L364.403 570.693C360.025 572.906 356.554 576.575 354.588 581.07C349.505 593.013 356.84 607.559 370.946 613.556C385.052 619.554 400.636 614.735 405.701 602.792Z" fill="#F191B5"/>
<path d="M455.073 663.245C441.002 657.247 425.419 662.066 420.353 674.009C415.287 685.952 422.587 700.498 436.693 706.496C439.473 707.67 442.403 708.452 445.399 708.817L461.071 666.604C459.202 665.266 457.191 664.139 455.073 663.245Z" fill="#F191B5"/>
<path d="M267.207 621.032C281.278 627.03 296.862 622.21 301.928 610.267C305.445 602.124 303.088 592.767 296.792 585.731C287.012 596.407 276.723 608.086 265.906 620.434L267.207 621.032Z" fill="#F191B5"/>
<path d="M416.29 776.605C402.219 770.624 386.635 775.444 381.569 787.387C376.504 799.329 383.75 813.858 397.909 819.785C399.717 820.54 401.589 821.129 403.503 821.544L419.614 778.17C418.535 777.59 417.425 777.067 416.29 776.605Z" fill="#F191B5"/>
<path d="M357.367 878.796C352.653 889.859 358.616 903.156 370.77 909.822L386.916 866.325C374.376 863.318 361.835 868.295 357.367 878.796Z" fill="#F191B5"/>
<path d="M424.645 485C423.141 484.394 421.939 483.218 421.3 481.728C420.661 480.239 420.636 478.557 421.232 477.05L428.725 458.247C429.02 457.501 429.459 456.82 430.018 456.243C430.576 455.666 431.243 455.205 431.98 454.887C432.717 454.568 433.509 454.398 434.312 454.386C435.115 454.374 435.912 454.521 436.658 454.818V454.818C438.149 455.427 439.34 456.6 439.972 458.081C440.604 459.563 440.627 461.234 440.035 462.733L432.542 481.535C431.949 483.038 430.786 484.245 429.307 484.895C427.828 485.544 426.152 485.582 424.645 485V485Z" fill="#BAE431"/>
<path d="M472.873 494.392C472.07 494.392 471.275 494.234 470.533 493.926C469.792 493.618 469.118 493.167 468.551 492.598C467.984 492.03 467.535 491.355 467.229 490.612C466.924 489.87 466.767 489.074 466.77 488.271V468.009C466.77 466.39 467.413 464.838 468.557 463.693C469.702 462.549 471.254 461.906 472.873 461.906V461.906C473.676 461.903 474.472 462.06 475.214 462.365C475.957 462.671 476.632 463.12 477.2 463.687C477.769 464.254 478.22 464.928 478.528 465.669C478.836 466.411 478.994 467.206 478.994 468.009V488.254C478.996 489.059 478.84 489.857 478.533 490.602C478.227 491.346 477.776 492.023 477.207 492.593C476.639 493.164 475.963 493.616 475.22 493.925C474.476 494.233 473.678 494.392 472.873 494.392V494.392Z" fill="#BAE431"/>
<path d="M519.87 492.792C518.28 493.063 516.648 492.693 515.329 491.763C514.011 490.834 513.114 489.42 512.835 487.832L509.317 467.886C509.046 466.296 509.416 464.663 510.346 463.345C511.275 462.027 512.688 461.13 514.277 460.851V460.851C515.867 460.585 517.497 460.956 518.814 461.885C520.131 462.813 521.029 464.224 521.313 465.811L524.83 485.756C524.967 486.544 524.947 487.351 524.771 488.131C524.596 488.911 524.268 489.648 523.808 490.302C523.347 490.955 522.762 491.511 522.087 491.938C521.411 492.366 520.658 492.656 519.87 492.792V492.792Z" fill="#BAE431"/>
<path d="M556.684 460.974C556.684 460.974 438.487 478.562 403.098 441.626C367.71 404.689 488.298 411.866 541.803 419.622C595.309 427.379 619.441 447.923 556.684 460.974Z" fill="white"/>
<path d="M541.839 419.587C570.843 423.791 591.175 431.758 593.743 440.271C596.188 429.015 574.395 417.828 541.645 412.129C492.695 403.687 387.743 395.613 397.188 427.115C404.365 406.976 496.829 413.062 541.839 419.587Z" fill="#3C8F3E"/>
<path d="M556.684 460.973C556.684 460.973 438.487 478.562 403.098 441.626C399.246 437.598 397.241 434.115 396.801 431.073C396.555 435.012 398.279 439.744 402.482 445.407C434.054 487.708 538.532 468.607 538.532 468.607C546.421 466.75 554.037 463.877 561.186 460.059C559.726 460.393 558.231 460.727 556.684 460.973Z" fill="#BAE431"/>
<path d="M506.345 451.476L506.855 432.691C507.04 426.288 504.889 420.036 500.804 415.102C487.015 414.029 472.521 413.343 458.855 413.343C454.147 418.113 451.43 424.496 451.257 431.196L450.747 449.981C450.642 454.241 451.565 458.464 453.438 462.293C469.557 464.549 485.833 465.496 502.106 465.124C504.748 461.051 506.214 456.329 506.345 451.476V451.476Z" fill="black"/>
<path d="M462.742 430.475C462.8 432.673 462.206 434.839 461.033 436.699C459.86 438.559 458.162 440.03 456.153 440.924C454.144 441.819 451.915 442.098 449.748 441.726C447.581 441.353 445.573 440.347 443.978 438.833C442.383 437.319 441.272 435.366 440.787 433.221C440.302 431.077 440.465 428.836 441.253 426.783C442.042 424.731 443.421 422.958 445.218 421.69C447.014 420.421 449.146 419.714 451.344 419.658C452.803 419.618 454.256 419.866 455.619 420.389C456.982 420.911 458.228 421.697 459.287 422.702C460.346 423.707 461.196 424.91 461.789 426.244C462.382 427.578 462.706 429.016 462.742 430.475V430.475Z" fill="white"/>
<path d="M781.803 477.226C782.327 476.997 782.8 476.666 783.196 476.254C783.592 475.842 783.902 475.355 784.11 474.822C784.318 474.29 784.418 473.721 784.405 473.15C784.393 472.578 784.267 472.015 784.037 471.492L778.25 458.283C778.021 457.752 777.689 457.273 777.273 456.872C776.856 456.472 776.364 456.159 775.826 455.951C775.287 455.743 774.712 455.644 774.135 455.661C773.557 455.678 772.989 455.81 772.463 456.049V456.049C771.94 456.278 771.466 456.608 771.07 457.02C770.674 457.433 770.364 457.919 770.156 458.452C769.949 458.985 769.848 459.553 769.861 460.125C769.873 460.696 769.999 461.26 770.23 461.783L776.016 474.992C776.245 475.522 776.577 476.002 776.994 476.402C777.41 476.802 777.902 477.116 778.441 477.324C778.979 477.532 779.554 477.63 780.132 477.613C780.709 477.596 781.277 477.465 781.803 477.226Z" fill="#BAE431"/>
<path d="M747.698 485.053C748.27 485.034 748.833 484.903 749.355 484.667C749.876 484.431 750.345 484.094 750.736 483.675C751.127 483.257 751.431 482.765 751.631 482.229C751.831 481.693 751.923 481.122 751.902 480.55L751.409 466.145C751.391 465.573 751.26 465.01 751.024 464.488C750.787 463.967 750.45 463.497 750.032 463.107C749.614 462.716 749.122 462.412 748.586 462.212C748.049 462.012 747.479 461.92 746.907 461.941V461.941C745.754 461.987 744.667 462.485 743.879 463.328C743.092 464.171 742.67 465.291 742.703 466.444L743.195 480.849C743.237 482.003 743.734 483.093 744.578 483.881C745.422 484.669 746.544 485.091 747.698 485.053Z" fill="#BAE431"/>
<path d="M714.209 485.106C715.353 485.261 716.513 484.959 717.435 484.264C718.358 483.569 718.968 482.537 719.134 481.394L721.121 467.112C721.203 466.547 721.173 465.971 721.031 465.418C720.889 464.865 720.64 464.346 720.296 463.89C719.953 463.433 719.523 463.05 719.03 462.761C718.538 462.471 717.993 462.283 717.428 462.205V462.205C716.862 462.123 716.285 462.154 715.731 462.295C715.177 462.436 714.656 462.686 714.198 463.029C713.741 463.372 713.355 463.802 713.064 464.295C712.774 464.787 712.583 465.332 712.503 465.899L710.498 480.181C710.337 481.326 710.638 482.488 711.334 483.411C712.03 484.335 713.064 484.944 714.209 485.106V485.106Z" fill="#BAE431"/>
<path d="M687.228 463.401C687.228 463.401 771.795 472.934 796.067 445.812C820.34 418.69 734.7 426.693 696.796 433.5C658.892 440.307 642.306 455.591 687.228 463.401Z" fill="white"/>
<path d="M696.831 433.518C676.288 437.229 662.006 443.385 660.37 449.506C658.365 441.556 673.579 433.06 696.779 428.241C731.429 421.047 805.935 412.745 799.972 435.4C794.344 421.188 728.685 427.784 696.831 433.518Z" fill="#3C8F3E"/>
<path d="M687.228 463.401C687.228 463.401 771.795 472.934 796.067 445.812C798.211 443.744 799.682 441.078 800.288 438.161C800.57 440.958 799.462 444.37 796.595 448.503C775.172 479.389 700.349 468.343 700.349 468.343C694.692 467.206 689.206 465.344 684.026 462.803L687.228 463.401Z" fill="#BAE431"/>
<path d="M733.293 464.738C734.841 461.656 735.562 458.226 735.386 454.782L734.647 440.922C734.424 436.51 732.741 432.296 729.863 428.944C717.551 430.211 705.872 431.899 696.849 433.518C695.518 436.443 694.914 439.648 695.09 442.857L695.828 456.717C695.973 459.34 696.63 461.91 697.763 464.28C709.59 465.063 721.45 465.216 733.293 464.738V464.738Z" fill="black"/>
<path d="M696.114 451.82C700.462 451.367 703.605 447.342 703.135 442.83C702.665 438.318 698.759 435.028 694.411 435.481C690.064 435.934 686.92 439.959 687.391 444.471C687.861 448.983 691.767 452.273 696.114 451.82Z" fill="white"/>
<path d="M481.094 361.963L408.256 382.067C403.068 383.499 400.024 388.865 401.456 394.053L401.863 395.528C403.295 400.715 408.661 403.76 413.848 402.328L486.686 382.224C491.874 380.792 494.918 375.426 493.487 370.239L493.079 368.764C491.648 363.576 486.282 360.531 481.094 361.963Z" fill="#7983C1"/>
<path d="M785.672 417.16L698.045 413.642C697.008 413.601 695.988 413.357 695.046 412.922C694.103 412.487 693.255 411.87 692.551 411.107C691.847 410.344 691.301 409.45 690.942 408.475C690.584 407.501 690.422 406.466 690.464 405.428V405.428C690.551 403.336 691.465 401.364 693.005 399.946C694.546 398.528 696.586 397.779 698.678 397.865L786.305 401.383C787.343 401.424 788.362 401.668 789.305 402.103C790.247 402.538 791.095 403.155 791.799 403.918C792.503 404.681 793.05 405.575 793.408 406.55C793.766 407.524 793.929 408.559 793.886 409.597V409.597C793.799 411.689 792.885 413.661 791.345 415.079C789.805 416.497 787.764 417.246 785.672 417.16V417.16Z" fill="#7983C1"/>
<path d="M720.523 842.176C693.014 799.382 638.014 778.381 593.884 776.095C570.596 774.881 546.025 780.861 522.579 791.59C522.579 791.59 364.104 791.59 320.554 832.818C280.733 870.529 337.175 889.015 364.667 878.409C392.158 867.803 430.308 847.487 451.925 841.595C424.469 869.966 416.184 895.892 432.735 904.475C451.555 914.219 470.674 907.342 491.869 868.365C513.063 829.389 533.255 820.981 533.255 820.981C519.719 833.062 508.924 847.899 501.595 864.496C486.082 898.566 472.695 933.564 461.511 969.29L498.183 971.594L556.121 977.011L764.706 958.315C764.706 958.315 748.032 884.969 720.523 842.176Z" fill="white"/>
<path d="M321.38 857.46C321.38 857.46 315.664 847.153 327.114 839.414C338.565 831.675 344.598 834.542 348.028 843.425C351.457 852.307 329.981 870.934 321.38 857.46Z" fill="#654EA5"/>
<path d="M433.439 888.117C433.439 888.117 438.311 893.851 448.055 889.56C457.799 885.268 465.82 877.81 463.885 870.071C461.95 862.332 449.269 866.342 444.115 870.071C438.962 873.8 430.291 882.964 433.439 888.117Z" fill="#654EA5"/>
<path d="M603.048 804.166C603.048 804.166 564.088 825.695 540.59 865.727C517.091 905.759 498.183 971.576 498.183 971.576L556.121 977.011C556.121 977.011 567.571 878.514 617.435 837.216" stroke="black" stroke-linecap="round" stroke-linejoin="round"/>
<path d="M573.833 798.802C573.833 798.802 527.416 807.913 501.631 864.496C486.105 898.565 472.706 933.563 461.511 969.29L498.183 971.594" stroke="black" stroke-linecap="round" stroke-linejoin="round"/>
<path d="M424.873 884.16C427.863 869.597 441.582 849.897 464.114 829.951C501.05 797.289 549.754 773.808 593.884 776.094" stroke="black" stroke-linecap="round" stroke-linejoin="round"/>
<path d="M364.667 878.409C392.176 867.856 430.308 847.488 451.925 841.595" stroke="black" stroke-linecap="round" stroke-linejoin="round"/>
<path d="M262.476 595.018C245.45 574.386 219.471 554.564 201.372 538.91C206.746 534.649 210.475 528.657 211.925 521.954C213.028 522.622 214.2 523.291 215.443 523.959C235.512 535.427 258.782 523.959 246.945 496.45C240.331 481.148 220.35 464.65 198.452 460.727L198.558 460.551C196.028 456.604 193.08 452.942 189.763 449.629C200.598 446.111 212.154 437.07 210.87 425.409C209.357 411.074 190.608 403.054 160.812 410.124C143.307 414.337 126.55 421.206 111.124 430.492V430.492C139.864 390.038 132.688 361.685 112.109 362.67C70.4762 364.675 23.303 475.08 35.2106 526.246C47.1182 577.411 102.048 619.466 134.341 650.774C166.634 682.082 136.381 723.363 113.463 766.861C90.545 810.358 22.8633 944.191 22.8633 944.191H198.312C198.312 944.191 296.105 802.073 309.86 763.026C323.614 723.979 291.515 630.16 262.476 595.018Z" fill="#BAE431"/>
<path d="M183.238 421.399C192.226 428.065 202.322 423.07 203.729 413.589C198.224 409.456 189.658 407.17 178.612 407.556C177.487 411.373 177.082 416.773 183.238 421.399Z" fill="#F191B5"/>
<path d="M225.135 500.179C229.919 510.732 242.178 510.081 249.882 507.637C249.439 503.773 248.407 500.001 246.822 496.45C243.625 489.629 239.056 483.54 233.401 478.562C228.494 481.781 220.175 489.116 225.135 500.179Z" fill="#F191B5"/>
<path d="M108.538 363.109C100.254 364.71 91.8291 370.374 83.7559 378.781C87.099 382.295 91.6488 384.413 96.4902 384.708C107.782 385.746 113.78 373.029 108.538 363.109Z" fill="#F191B5"/>
<path d="M130.19 384.726C129.768 396.458 124.105 412.235 111.159 430.457" stroke="black" stroke-linecap="round" stroke-linejoin="round"/>
<path d="M246.118 521.954C239.856 529.535 227.034 530.66 215.32 523.959C195.251 512.509 183.027 499.511 180.723 513.265C179.087 523.15 207.001 542.885 233.63 566.242" stroke="black" stroke-linecap="round" stroke-linejoin="round"/>
<path d="M162.396 611.059C162.396 611.059 116.348 526.826 148.166 482.221C168.042 454.36 196.975 456.137 218.785 468.15" stroke="black" stroke-linecap="round" stroke-linejoin="round"/>
<path d="M101.081 569.233C101.081 569.233 68.999 503.908 76.4566 471.245C83.9143 438.583 130.982 417.195 160.689 410.124C190.397 403.054 209.235 411.074 210.747 425.409" stroke="black" stroke-linecap="round" stroke-linejoin="round"/>
<path d="M211.89 521.937C210.445 528.646 206.715 534.646 201.337 538.91" stroke="black" stroke-linecap="round" stroke-linejoin="round"/>
<path d="M124.949 596.161C124.949 596.161 105.478 548.038 111.968 501.797C118.459 455.556 139.09 438.003 158.948 436.472C173.863 435.329 188.761 445.601 198.435 460.552" stroke="black" stroke-linecap="round" stroke-linejoin="round"/>
<path d="M40.6836 663.912C59.4972 649.915 63.4013 623.316 49.4036 604.502C35.4059 585.689 8.80709 581.785 -10.0065 595.782C-28.8201 609.78 -32.7241 636.379 -18.7264 655.192C-4.72875 674.006 21.87 677.91 40.6836 663.912Z" fill="#EB2C61"/>
<path d="M-6.73841 635.12C-0.200872 635.12 5.09884 629.309 5.09884 622.14C5.09884 614.971 -0.200872 609.159 -6.73841 609.159C-13.276 609.159 -18.5757 614.971 -18.5757 622.14C-18.5757 629.309 -13.276 635.12 -6.73841 635.12Z" fill="white"/>
<path d="M-0.529435 655.946C2.89962 655.946 5.67941 653.166 5.67941 649.737C5.67941 646.308 2.89962 643.528 -0.529435 643.528C-3.95849 643.528 -6.73828 646.308 -6.73828 649.737C-6.73828 653.166 -3.95849 655.946 -0.529435 655.946Z" fill="white"/>
<path d="M15.3354 413.625V601.051" stroke="white" stroke-width="2" stroke-linecap="round" stroke-linejoin="round"/>
<path d="M16.936 412.27C16.936 412.27 -36.4812 340.789 -112.113 392.377C-112.113 392.377 -68.5632 458.881 16.936 412.27Z" fill="#5FD065"/>
<path d="M16.3908 412.552L-111.726 392.975C-107.294 399.255 -64.1484 456.102 16.3908 412.552Z" fill="#3C8F3E"/>
<path d="M786.077 938.826C786.077 938.826 819.267 671.107 940.577 677.492C1038.69 682.663 995.472 832.414 917.588 938.826C839.705 1045.24 770.563 999.807 786.077 938.826Z" fill="#3C8F3E"/>
<path d="M865.789 888.381L907.527 803.287L990.054 793.543L990.582 791.502L908.548 801.176L966.292 683.331C965.711 683.067 965.131 682.768 964.533 682.522L906.947 799.98L867.97 712.493L866.563 714.129L905.804 802.372L864.136 887.344L820.164 799.4L819.232 801.933L863.063 889.525L827.885 961.41L793.921 893.342L793.288 896.455L826.707 963.644L809.399 999.191L811.158 999.947L828.448 964.77H896.218C896.833 964.136 897.431 963.468 897.977 962.817H829.38L864.787 890.703L953.628 882.05C954.015 881.364 954.384 880.66 954.753 879.974L865.789 888.381Z" fill="#BAE431"/>
<path d="M-10.2385 923.559C-10.2385 923.559 44.0054 792.909 106.657 799.013C169.308 805.116 138.739 922.029 115.82 961.762C92.9023 1001.5 -17.1157 951.068 -17.1157 951.068L-10.2385 923.559Z" fill="#5FD065"/>
<path d="M143.628 862.227C143.628 861.629 143.628 861.013 143.628 860.468L77.0194 874.908L119.338 802.337C118.81 802.108 118.265 801.88 117.702 801.668L75.4892 874.117L56.1415 820.999C55.6666 821.421 55.2093 821.86 54.752 822.3L74.3459 876.069L46.9601 922.996L16.3732 871.988C16.0214 872.551 15.6696 873.114 15.3354 873.747L45.94 924.755L21.9137 965.913L23.6725 966.458L47.5054 925.617L130.595 927.516L131.175 925.757L48.5079 923.893L75.9465 876.913L143.628 862.227Z" fill="#BAE431"/>
<path d="M-113.203 940.744L-56.2861 973.564C-52.2055 968.745 -47.8435 963.275 -43.1473 957.031C41.1207 844.621 75.9465 657.282 6.15414 644.777C-56.163 633.625 -96.283 698.968 -123.282 776.359C-150.281 853.749 -113.133 940.145 -113.133 940.145C-113.133 940.145 -113.168 940.357 -113.203 940.744Z" fill="#5FD065"/>
<path d="M-93.0997 952.334L-60.877 857.654L20.0315 836.371C20.2777 835.703 20.5064 835.035 20.735 834.366L-60.1911 855.666L-31.4509 771.24L42.123 742.535C42.123 741.884 42.2637 741.216 42.3165 740.565L-30.7122 769.059L11.1667 646.078C10.6039 645.902 10.0586 645.709 9.40784 645.551L-32.3128 768.32L-76.7597 683.419L-77.9557 684.949L-33.1043 770.625L-61.7916 854.963L-119.518 765.911C-119.782 766.597 -120.028 767.283 -120.274 767.969L-62.5128 857.038L-94.6651 951.437L-93.0997 952.334Z" fill="#BAE431"/>
<path d="M561.169 25.0526C561.169 25.0526 574.202 139.38 669.709 171.18C765.217 202.981 714.86 50.2925 681.564 1.99368C643.186 -53.6573 550.422 -84.2794 561.169 25.0526Z" fill="#5FD065"/>
<path d="M685.838 8.62485L610.33 -1.61184L587.271 -46.1115L585.617 -45.4783L608.729 -0.873106L568.433 56.695C568.644 57.3986 568.873 58.1022 569.101 58.8233L609.732 0.920953L638.208 55.886L594.552 112.715L595.59 114.246L639.017 57.68L661.882 101.951L632.896 152.519L634.338 153.539L662.92 103.745L699.857 174.892C700.466 174.786 701.053 174.663 701.616 174.522L664.45 102.883L722.37 106.225L722.054 104.466L663.518 101.089L640.653 56.9765L710.093 61.1274L709.425 59.3686L639.721 55.2L611.315 0.322933L686.946 10.5596C686.612 9.89125 686.278 9.25804 685.838 8.62485Z" fill="#BAE431"/>
<path d="M1121.9 983.08C1121.9 983.08 994.1 886.341 1010.28 813.013C1026.46 739.686 1136.92 764.116 1203.55 935.625C1270.17 1107.13 1121.9 983.08 1121.9 983.08Z" fill="#5FD065"/>
<path d="M1170.43 965.139L1190.36 904.704C1190 903.93 1189.63 903.191 1189.26 902.417L1169.13 963.468L1123.24 904.211L1144.98 830.708L1143.62 829.054L1121.9 902.452L1076.47 843.6L1089.06 783.042L1087.43 782.251L1075.11 841.753C1054.41 814.913 1037.61 793.068 1029.17 781.952L1027.8 782.972C1036.33 794.246 1053 815.986 1073.88 843.073L1012 847.681C1012.16 848.261 1012.32 848.824 1012.5 849.44L1075.17 844.779C1088.92 862.614 1104.42 882.7 1120.56 903.578L1044.33 906.779C1044.77 907.342 1045.21 907.923 1045.67 908.538L1121.88 905.337C1136.9 924.773 1152.45 944.859 1167.61 964.471L1096.48 961.832L1098.54 963.591L1169.02 966.194L1213.27 1023.32C1213.75 1022.97 1214.2 1022.6 1214.63 1022.2C1202.07 1006.02 1186.8 986.316 1170.43 965.139Z" fill="#BAE431"/>
<path d="M1268.71 16.6452C1268.71 16.6452 1178.57 133.628 1054.02 120.595C929.478 107.562 1090.7 -68.168 1184.67 -91.8425C1278.65 -115.517 1340.58 -76.5755 1268.71 16.6452Z" fill="#3C8F3E"/>
<path d="M1294.09 -74.8341C1293.8 -75.3266 1293.48 -75.8191 1293.14 -76.294L1277.7 -66.1629L1191.08 -93.3903L1187.7 -92.5988L1275.64 -64.914L1208.84 -20.9596L1118.96 -59.0746L1117.2 -57.8961L1207.08 -19.7636L1154.14 15.0095L1057.4 -5.4463C1056.93 -4.95381 1056.47 -4.44374 1056.01 -3.93366L1152.08 16.3814L1080.37 63.4666L1017.05 51.2424C1016.81 51.8053 1016.54 52.3505 1016.3 52.8958L1078.26 64.8386L1016.58 105.293C1016.98 105.733 1017.39 106.155 1017.81 106.577L1079.26 66.1225L1068.13 121.51H1069.89L1081.31 64.8913L1153.21 17.7357L1141.83 109.198L1143.67 108.512L1155.09 16.4518L1207.96 -18.2861L1205.87 75.0752L1207.63 73.8088L1209.76 -19.4118L1277.03 -63.5949L1281.68 -1.85818C1282.2 -2.70245 1282.75 -3.61707 1283.24 -4.39098L1278.72 -64.703L1294.09 -74.8341Z" fill="#BAE431"/>
</g>
<defs>
<clipPath id="clip0_19_274">
<rect width="1124" height="950" fill="white"/>
</clipPath>
</defs>
</svg>
