<svg width="137" height="127" viewBox="0 0 137 127" fill="none" xmlns="http://www.w3.org/2000/svg">
<g opacity="0.5" filter="url(#filter0_d_928_1088)">
<path d="M49.45 8.61801C49.45 4.4107 52.8616 1 57.07 1H79.93C84.1384 1 87.55 4.4107 87.55 8.61801V31.4721C87.55 35.6794 84.1384 39.0901 79.93 39.0901H57.07C52.8616 39.0901 49.45 35.6794 49.45 31.4721V8.61801Z" fill="#C8C8C8" fill-opacity="0.7" shape-rendering="crispEdges"/>
<path d="M62.9676 27.663L59.0255 14.2553H61.3217L64.329 25.7738L67.2551 14.2553H69.4903L72.4367 25.7941L75.4238 14.2553H77.6386L73.7169 27.663H71.1566L69.0229 19.6184L68.3524 16.5306H68.3321L67.6615 19.6184L65.5482 27.663H62.9676Z" fill="black" shape-rendering="crispEdges"/>
<path d="M49.45 70.8318C49.45 66.6245 52.8616 63.2138 57.07 63.2138H79.93C84.1384 63.2138 87.55 66.6245 87.55 70.8318V93.6858C87.55 97.8932 84.1384 101.304 79.93 101.304H57.07C52.8616 101.304 49.45 97.8932 49.45 93.6858V70.8318Z" fill="#C8C8C8" fill-opacity="0.7" shape-rendering="crispEdges"/>
<path d="M68.7662 76.2139C69.9719 76.2139 71.015 76.4441 71.8955 76.9046C72.776 77.3515 73.5211 78.0151 74.1307 78.8954L72.6676 80.2972C72.1529 79.5117 71.5704 78.9496 70.9201 78.611C70.2834 78.2589 69.5248 78.0829 68.6443 78.0829C67.9941 78.0829 67.459 78.1709 67.039 78.3469C66.6191 78.523 66.3075 78.76 66.1043 79.058C65.9146 79.3424 65.8198 79.6674 65.8198 80.0331C65.8198 80.4529 65.9621 80.8186 66.2465 81.1301C66.5446 81.4416 67.0932 81.6853 67.8925 81.8614L70.6153 82.4708C71.9158 82.7552 72.837 83.1886 73.3789 83.771C73.9207 84.3533 74.1917 85.0914 74.1917 85.9853C74.1917 86.8114 73.9681 87.5292 73.5211 88.1386C73.0741 88.7481 72.4509 89.2153 71.6516 89.5404C70.8659 89.8654 69.938 90.0279 68.8678 90.0279C67.9195 90.0279 67.0661 89.906 66.3075 89.6622C65.5489 89.4185 64.8851 89.0867 64.3161 88.6668C63.7472 88.247 63.2798 87.7662 62.9141 87.2245L64.4177 85.7212C64.7022 86.1952 65.0612 86.6218 65.4947 87.001C65.9282 87.3667 66.4294 87.6511 66.9984 87.8542C67.5809 88.0574 68.2243 88.159 68.9288 88.159C69.5519 88.159 70.087 88.0845 70.534 87.9355C70.9946 87.7865 71.3401 87.5698 71.5704 87.2854C71.8142 86.9875 71.9361 86.6353 71.9361 86.2291C71.9361 85.8363 71.8007 85.491 71.5297 85.193C71.2723 84.8951 70.7847 84.6648 70.0667 84.5023L67.1203 83.8319C66.3075 83.6559 65.6369 83.4053 65.1086 83.0803C64.5803 82.7552 64.1874 82.3625 63.9301 81.902C63.6727 81.428 63.544 80.8998 63.544 80.3175C63.544 79.5591 63.7472 78.8751 64.1536 78.2657C64.5735 77.6427 65.1763 77.1484 65.9621 76.7827C66.7478 76.4035 67.6825 76.2139 68.7662 76.2139Z" fill="black" shape-rendering="crispEdges"/>
<path d="M93.9 70.5609C93.9 66.3536 97.3116 62.9429 101.52 62.9429H124.38C128.588 62.9429 132 66.3536 132 70.5609V93.4149C132 97.6222 128.588 101.033 124.38 101.033H101.52C97.3116 101.033 93.9 97.6222 93.9 93.4149V70.5609Z" fill="#C8C8C8" fill-opacity="0.7" shape-rendering="crispEdges"/>
<path d="M111.921 76.1461C114.02 76.1461 115.653 76.7285 116.818 77.8932C117.996 79.0444 118.586 80.6966 118.586 82.85C118.586 85.0033 117.996 86.6624 116.818 87.8271C115.653 88.9783 114.02 89.5538 111.921 89.5538H107.186V76.1461H111.921ZM111.921 87.7052C113.343 87.7052 114.427 87.2854 115.172 86.4457C115.93 85.5925 116.31 84.3939 116.31 82.85C116.31 81.3061 115.93 80.1143 115.172 79.2746C114.427 78.4214 113.343 77.9948 111.921 77.9948H109.36V87.7052H111.921Z" fill="black" shape-rendering="crispEdges"/>
<path d="M5 70.5609C5 66.3536 8.41159 62.9429 12.62 62.9429H35.48C39.6884 62.9429 43.1 66.3536 43.1 70.5609V93.4149C43.1 97.6222 39.6884 101.033 35.48 101.033H12.62C8.41159 101.033 5 97.6222 5 93.4149V70.5609Z" fill="#C8C8C8" fill-opacity="0.7" shape-rendering="crispEdges"/>
<path d="M30.4202 89.5538H28.124L26.8439 86.0394H21.2152L19.9351 89.5538H17.6999L22.7596 76.1461H25.3605L30.4202 89.5538ZM21.8248 84.272H26.2343L24.0397 78.0151L21.8248 84.272Z" fill="black" shape-rendering="crispEdges"/>
<path d="M51.7879 45.6289H47.2413L46.6063 48.3333H50.3909L50.175 49.2855H46.3904L45.5141 53.0564H44.4981L46.4412 44.6766H52.0165L51.7879 45.6289Z" fill="white" fill-opacity="0.7" shape-rendering="crispEdges"/>
<path d="M54.2791 53.1707C53.6695 53.1707 53.1488 53.0437 52.717 52.7898C52.2936 52.5274 51.9677 52.1804 51.7391 51.7487C51.5189 51.3085 51.4089 50.8303 51.4089 50.3139C51.4089 49.586 51.5486 48.9427 51.828 48.384C52.1074 47.8254 52.4926 47.3895 52.9837 47.0763C53.4747 46.7546 54.042 46.5938 54.6855 46.5938C55.3035 46.5938 55.8242 46.725 56.2476 46.9874C56.6709 47.2413 56.9926 47.5842 57.2128 48.0158C57.4329 48.4391 57.543 48.9131 57.543 49.4379C57.543 50.1574 57.4033 50.8007 57.1239 51.3678C56.8529 51.9264 56.4719 52.3666 55.9809 52.6882C55.4898 53.0099 54.9225 53.1707 54.2791 53.1707ZM54.3172 52.2946C54.622 52.2946 54.9056 52.2311 55.1681 52.1042C55.439 51.9688 55.6761 51.7783 55.8793 51.5328C56.0825 51.2789 56.2391 50.9784 56.3492 50.6314C56.4592 50.2843 56.5143 49.8992 56.5143 49.476C56.5143 49.1035 56.4465 48.7692 56.3111 48.4729C56.1841 48.1682 55.9809 47.927 55.7015 47.7492C55.4305 47.563 55.0792 47.4699 54.6474 47.4699C54.3426 47.4699 54.0547 47.5376 53.7838 47.673C53.5128 47.8 53.2758 47.9862 53.0726 48.2317C52.8778 48.4772 52.7212 48.7734 52.6027 49.1205C52.4926 49.4675 52.4376 49.8526 52.4376 50.2759C52.4376 50.6398 52.5053 50.9784 52.6408 51.2916C52.7762 51.5963 52.9837 51.8418 53.2631 52.028C53.5425 52.2057 53.8938 52.2946 54.3172 52.2946Z" fill="white" fill-opacity="0.7" shape-rendering="crispEdges"/>
<path d="M58.6444 53.0564L60.1176 46.7081H60.9431L60.8034 48.1682L60.651 48.0793C60.7865 47.7661 60.9727 47.4995 61.2098 47.2794C61.4469 47.0509 61.7136 46.8774 62.0099 46.7589C62.3147 46.6404 62.6153 46.5811 62.9116 46.5811C63.0471 46.5811 63.1656 46.5896 63.2672 46.6065C63.3773 46.6234 63.4746 46.6531 63.5593 46.6954L63.2545 47.6603C63.1698 47.618 63.0725 47.5884 62.9624 47.5715C62.8608 47.5461 62.738 47.5334 62.5941 47.5334C62.2724 47.5334 61.9676 47.6095 61.6797 47.7619C61.4003 47.9058 61.1548 48.1301 60.9431 48.4348C60.7314 48.7396 60.5706 49.1332 60.4605 49.6156L59.6604 53.0564H58.6444Z" fill="white" fill-opacity="0.7" shape-rendering="crispEdges"/>
<path d="M64.8254 53.0564L64.1396 46.7081H65.1175L65.6001 51.7868L68.2798 46.7081H69.2958L69.9435 51.8629L72.6867 46.7081H73.7662L70.261 53.0564H69.245L68.5465 48.0158L65.8541 53.0564H64.8254Z" fill="white" fill-opacity="0.7" shape-rendering="crispEdges"/>
<path d="M76.5445 53.158C76.0534 53.158 75.6216 53.0395 75.2491 52.8025C74.8765 52.5655 74.5844 52.2396 74.3728 51.8249C74.1611 51.4016 74.0553 50.9149 74.0553 50.3647C74.0553 49.8399 74.1357 49.349 74.2966 48.8919C74.4574 48.4348 74.6818 48.0328 74.9697 47.6857C75.2575 47.3387 75.6004 47.0678 75.9984 46.8731C76.3963 46.6785 76.8281 46.5811 77.2938 46.5811C77.6663 46.5811 78.0007 46.6446 78.2971 46.7716C78.5934 46.8985 78.8389 47.0805 79.0337 47.3175C79.2284 47.5461 79.3639 47.8212 79.4401 48.1428L79.7703 46.7081H80.7863L79.3131 53.0564H78.4241L78.64 51.8756C78.4368 52.265 78.1447 52.5782 77.7637 52.8152C77.3911 53.0437 76.9847 53.158 76.5445 53.158ZM76.8112 52.2946C77.1075 52.2946 77.3869 52.2185 77.6494 52.0661C77.9203 51.9137 78.1574 51.7063 78.3606 51.444C78.5722 51.1731 78.7373 50.8599 78.8559 50.5044C78.9744 50.1404 79.0337 49.7511 79.0337 49.3363C79.0337 48.9554 78.9617 48.6253 78.8178 48.346C78.6823 48.0582 78.4876 47.8381 78.2336 47.6857C77.988 47.5334 77.6959 47.4572 77.3573 47.4572C77.0186 47.4572 76.7096 47.5334 76.4302 47.6857C76.1508 47.8296 75.9095 48.0328 75.7063 48.2952C75.5031 48.5576 75.3422 48.8665 75.2237 49.222C75.1136 49.5691 75.0586 49.9457 75.0586 50.352C75.0586 50.7668 75.1263 51.1181 75.2618 51.4059C75.3972 51.6937 75.592 51.9137 75.846 52.0661C76.1084 52.2185 76.4302 52.2946 76.8112 52.2946Z" fill="white" fill-opacity="0.7" shape-rendering="crispEdges"/>
<path d="M81.5763 53.0564L83.0495 46.7081H83.875L83.7353 48.1682L83.5829 48.0793C83.7184 47.7661 83.9047 47.4995 84.1417 47.2794C84.3788 47.0509 84.6455 46.8774 84.9418 46.7589C85.2466 46.6404 85.5472 46.5811 85.8435 46.5811C85.979 46.5811 86.0975 46.5896 86.1991 46.6065C86.3092 46.6234 86.4066 46.6531 86.4912 46.6954L86.1864 47.6603C86.1018 47.618 86.0044 47.5884 85.8943 47.5715C85.7927 47.5461 85.67 47.5334 85.526 47.5334C85.2043 47.5334 84.8995 47.6095 84.6116 47.7619C84.3322 47.9058 84.0867 48.1301 83.875 48.4348C83.6634 48.7396 83.5025 49.1332 83.3924 49.6156L82.5923 53.0564H81.5763Z" fill="white" fill-opacity="0.7" shape-rendering="crispEdges"/>
<path d="M89.0956 53.158C88.6046 53.158 88.1728 53.0395 87.8002 52.8025C87.4277 52.5655 87.1356 52.2396 86.9239 51.8249C86.7123 51.4016 86.6064 50.9149 86.6064 50.3647C86.6064 49.8399 86.6869 49.349 86.8477 48.8919C87.0086 48.4348 87.233 48.0328 87.5208 47.6857C87.8087 47.3387 88.1516 47.0678 88.5495 46.8731C88.9475 46.6785 89.3793 46.5811 89.8449 46.5811C90.2175 46.5811 90.5519 46.6446 90.8482 46.7716C91.1446 46.8985 91.3901 47.0805 91.5848 47.3175C91.7796 47.5461 91.915 47.8212 91.9912 48.1428L92.9945 43.7878H94.0105L91.8642 53.0564H90.9752L91.1911 51.8756C90.9879 52.265 90.6958 52.5782 90.3148 52.8152C89.9423 53.0437 89.5359 53.158 89.0956 53.158ZM89.3496 52.2946C89.6544 52.2946 89.9423 52.2185 90.2132 52.0661C90.4842 51.9137 90.7212 51.7063 90.9244 51.444C91.1276 51.1731 91.2885 50.8599 91.407 50.5044C91.5256 50.1404 91.5848 49.7511 91.5848 49.3363C91.5848 48.9554 91.5129 48.6253 91.3689 48.346C91.2335 48.0582 91.0387 47.8381 90.7847 47.6857C90.5392 47.5334 90.2471 47.4572 89.9084 47.4572C89.5698 47.4572 89.2607 47.5334 88.9813 47.6857C88.7019 47.8296 88.4606 48.0328 88.2574 48.2952C88.0542 48.5576 87.8934 48.8665 87.7748 49.222C87.6648 49.5691 87.6097 49.9457 87.6097 50.352C87.6097 50.7668 87.6775 51.1181 87.8129 51.4059C87.9484 51.6937 88.1431 51.9137 88.3971 52.0661C88.6596 52.2185 88.9771 52.2946 89.3496 52.2946Z" fill="white" fill-opacity="0.7" shape-rendering="crispEdges"/>
<path d="M53.8966 115.27L55.8397 106.89H58.8369C59.5396 106.89 60.0815 107.064 60.4625 107.411C60.852 107.75 61.0467 108.207 61.0467 108.782C61.0467 109.18 60.9705 109.54 60.8181 109.861C60.6742 110.183 60.471 110.45 60.2085 110.661C59.946 110.873 59.6412 111.021 59.2941 111.106V111.118C59.692 111.178 60.0138 111.36 60.2593 111.664C60.5048 111.961 60.6276 112.308 60.6276 112.705C60.6276 113.264 60.4921 113.734 60.2212 114.115C59.9503 114.496 59.5777 114.784 59.1036 114.978C58.6295 115.173 58.0791 115.27 57.4526 115.27H53.8966ZM55.1412 114.318H57.4526C58.1384 114.318 58.6591 114.174 59.0147 113.886C59.3788 113.598 59.5608 113.205 59.5608 112.705C59.5608 112.452 59.5058 112.24 59.3957 112.071C59.2856 111.901 59.1205 111.774 58.9004 111.69C58.6803 111.605 58.4051 111.563 58.0749 111.563H55.7762L55.1412 114.318ZM55.9921 110.611H58.113C58.5109 110.611 58.8496 110.539 59.129 110.395C59.4084 110.251 59.6201 110.052 59.764 109.798C59.9164 109.544 59.9926 109.252 59.9926 108.922C59.9926 108.524 59.8571 108.245 59.5862 108.084C59.3237 107.923 58.9893 107.843 58.5829 107.843H56.6398L55.9921 110.611Z" fill="white" fill-opacity="0.7" shape-rendering="crispEdges"/>
<path d="M64.6729 115.372C64.1819 115.372 63.7501 115.253 63.3775 115.016C63.005 114.779 62.7129 114.453 62.5012 114.039C62.2896 113.615 62.1837 113.129 62.1837 112.579C62.1837 112.054 62.2642 111.563 62.425 111.106C62.5859 110.649 62.8103 110.247 63.0981 109.9C63.386 109.552 63.7289 109.282 64.1268 109.087C64.5248 108.892 64.9566 108.795 65.4222 108.795C65.7948 108.795 66.1292 108.858 66.4255 108.985C66.7219 109.112 66.9674 109.294 67.1621 109.531C67.3569 109.76 67.4923 110.035 67.5685 110.357L67.8987 108.922H68.9147L67.4415 115.27H66.5525L66.7684 114.089C66.5652 114.479 66.2731 114.792 65.8921 115.029C65.5196 115.258 65.1132 115.372 64.6729 115.372ZM64.9396 114.508C65.236 114.508 65.5154 114.432 65.7778 114.28C66.0488 114.128 66.2858 113.92 66.489 113.658C66.7007 113.387 66.8658 113.074 66.9843 112.718C67.1029 112.354 67.1621 111.965 67.1621 111.55C67.1621 111.169 67.0902 110.839 66.9462 110.56C66.8108 110.272 66.616 110.052 66.362 109.9C66.1165 109.747 65.8244 109.671 65.4857 109.671C65.1471 109.671 64.838 109.747 64.5586 109.9C64.2792 110.043 64.0379 110.247 63.8347 110.509C63.6315 110.771 63.4707 111.08 63.3521 111.436C63.2421 111.783 63.187 112.16 63.187 112.566C63.187 112.981 63.2548 113.332 63.3902 113.62C63.5257 113.907 63.7204 114.128 63.9744 114.28C64.2369 114.432 64.5586 114.508 64.9396 114.508Z" fill="white" fill-opacity="0.7" shape-rendering="crispEdges"/>
<path d="M72.829 115.384C72.2448 115.384 71.7411 115.258 71.3177 115.004C70.9028 114.741 70.5854 114.394 70.3652 113.962C70.1451 113.522 70.035 113.04 70.035 112.515C70.035 111.787 70.1747 111.148 70.4541 110.598C70.7335 110.039 71.123 109.603 71.6225 109.29C72.122 108.968 72.702 108.808 73.3624 108.808C73.845 108.808 74.2641 108.892 74.6197 109.062C74.9838 109.231 75.2759 109.464 75.496 109.76C75.7246 110.056 75.877 110.39 75.9532 110.763L74.8864 111.017C74.8525 110.644 74.7044 110.331 74.4419 110.077C74.1879 109.815 73.8111 109.684 73.3116 109.684C72.9899 109.684 72.6893 109.751 72.4099 109.887C72.139 110.022 71.9019 110.217 71.6987 110.471C71.4955 110.716 71.3389 111.013 71.2288 111.36C71.1187 111.698 71.0637 112.079 71.0637 112.502C71.0637 112.875 71.1357 113.213 71.2796 113.518C71.4235 113.823 71.631 114.064 71.9019 114.242C72.1813 114.42 72.5242 114.508 72.9306 114.508C73.2608 114.508 73.5698 114.424 73.8577 114.254C74.154 114.085 74.3615 113.835 74.48 113.505L75.4706 113.861C75.2505 114.352 74.9033 114.728 74.4292 114.991C73.9635 115.253 73.4301 115.384 72.829 115.384Z" fill="white" fill-opacity="0.7" shape-rendering="crispEdges"/>
<path d="M83.3584 108.922L80.0437 111.677L79.8278 111.817L77.364 113.874L77.5545 112.579L81.936 108.922H83.3584ZM79.7008 106.002L77.5545 115.27H76.5385L78.6848 106.002H79.7008ZM80.2342 111.144L82.0376 115.27H80.9327L79.4087 111.69L80.2342 111.144Z" fill="white" fill-opacity="0.7" shape-rendering="crispEdges"/>
<path d="M97.6843 115.27L99.6274 106.89H102.371C103.124 106.89 103.721 107.094 104.161 107.5C104.61 107.898 104.834 108.452 104.834 109.163C104.834 109.637 104.724 110.06 104.504 110.433C104.293 110.805 104.009 111.11 103.653 111.347C103.306 111.575 102.929 111.728 102.523 111.804L101.888 111.893H99.2845L99.5004 110.941H101.786C102.235 110.941 102.608 110.86 102.904 110.699C103.2 110.53 103.42 110.31 103.564 110.039C103.708 109.76 103.78 109.455 103.78 109.125C103.78 108.702 103.636 108.384 103.349 108.173C103.061 107.953 102.667 107.843 102.167 107.843H100.427L98.7003 115.27H97.6843ZM103.044 115.27L101.609 111.702L102.637 111.575L104.149 115.27H103.044Z" fill="white" fill-opacity="0.7" shape-rendering="crispEdges"/>
<path d="M107.88 107.703C107.677 107.703 107.512 107.644 107.385 107.525C107.258 107.398 107.195 107.237 107.195 107.043C107.195 106.78 107.271 106.573 107.423 106.421C107.584 106.26 107.774 106.179 107.995 106.179C108.198 106.179 108.363 106.243 108.49 106.37C108.617 106.488 108.68 106.645 108.68 106.84C108.68 107.102 108.6 107.314 108.439 107.474C108.287 107.627 108.1 107.703 107.88 107.703ZM107.995 108.922L106.521 115.27H105.505L106.979 108.922H107.995Z" fill="white" fill-opacity="0.7" shape-rendering="crispEdges"/>
<path d="M111.091 118C110.727 118 110.384 117.949 110.062 117.848C109.749 117.755 109.47 117.619 109.224 117.441C108.987 117.264 108.788 117.048 108.627 116.794C108.475 116.548 108.369 116.269 108.31 115.956L109.326 115.6C109.419 116.074 109.601 116.443 109.872 116.705C110.151 116.976 110.583 117.111 111.167 117.111C111.489 117.111 111.794 117.052 112.082 116.933C112.37 116.823 112.624 116.625 112.844 116.337C113.064 116.057 113.229 115.66 113.339 115.143L113.656 113.709L113.822 113.556C113.695 114.022 113.428 114.403 113.021 114.699C112.615 114.987 112.145 115.131 111.612 115.131C111.121 115.131 110.68 115.008 110.291 114.762C109.901 114.517 109.597 114.187 109.377 113.772C109.156 113.349 109.046 112.887 109.046 112.388C109.046 111.855 109.127 111.372 109.288 110.941C109.449 110.5 109.673 110.12 109.961 109.798C110.249 109.476 110.587 109.231 110.977 109.062C111.375 108.884 111.802 108.795 112.259 108.795C112.691 108.795 113.068 108.88 113.39 109.049C113.72 109.21 113.982 109.442 114.177 109.747C114.372 110.043 114.478 110.395 114.495 110.801L114.304 110.903L114.761 108.922H115.777L114.291 115.258C114.139 115.909 113.906 116.434 113.593 116.832C113.288 117.238 112.924 117.534 112.501 117.721C112.077 117.907 111.607 118 111.091 118ZM111.878 114.254C112.276 114.254 112.636 114.136 112.958 113.899C113.28 113.662 113.534 113.34 113.72 112.934C113.915 112.519 114.012 112.049 114.012 111.525C114.012 111.144 113.944 110.818 113.809 110.547C113.673 110.268 113.479 110.052 113.225 109.9C112.971 109.747 112.67 109.671 112.323 109.671C111.883 109.671 111.493 109.785 111.155 110.014C110.816 110.234 110.549 110.547 110.354 110.953C110.16 111.351 110.062 111.821 110.062 112.363C110.062 112.913 110.223 113.366 110.545 113.721C110.867 114.077 111.311 114.254 111.878 114.254Z" fill="white" fill-opacity="0.7" shape-rendering="crispEdges"/>
<path d="M116.568 115.27L118.715 106.002H119.731L118.765 110.192L118.562 110.28C118.681 109.95 118.859 109.675 119.096 109.455C119.341 109.235 119.621 109.07 119.934 108.96C120.256 108.85 120.59 108.795 120.937 108.795C121.411 108.795 121.818 108.901 122.156 109.112C122.503 109.324 122.749 109.629 122.893 110.026C123.037 110.416 123.045 110.89 122.918 111.449L122.029 115.27H121.013L121.902 111.436C122.029 110.886 121.974 110.458 121.737 110.153C121.509 109.84 121.145 109.684 120.645 109.684C120.256 109.684 119.908 109.773 119.604 109.95C119.307 110.12 119.053 110.369 118.842 110.699C118.638 111.03 118.478 111.44 118.359 111.931L117.584 115.27H116.568Z" fill="white" fill-opacity="0.7" shape-rendering="crispEdges"/>
<path d="M126.687 115.372C126.281 115.372 125.934 115.291 125.646 115.131C125.358 114.97 125.155 114.737 125.036 114.432C124.918 114.128 124.905 113.764 124.998 113.34L126.332 107.525L127.437 107.208L125.989 113.391C125.904 113.78 125.955 114.06 126.141 114.229C126.336 114.39 126.577 114.47 126.865 114.47C127.077 114.47 127.263 114.441 127.424 114.381C127.585 114.322 127.725 114.246 127.843 114.153L128.046 114.991C127.835 115.135 127.619 115.232 127.399 115.283C127.178 115.342 126.941 115.372 126.687 115.372ZM124.528 109.798L124.732 108.922H128.999L128.796 109.798H124.528Z" fill="white" fill-opacity="0.7" shape-rendering="crispEdges"/>
<path d="M13.3934 114.318H18.1051L17.8765 115.27H12.1615L14.1046 106.89H15.1206L13.3934 114.318Z" fill="white" fill-opacity="0.7" shape-rendering="crispEdges"/>
<path d="M22.2631 115.384C21.6789 115.384 21.1752 115.258 20.7518 115.004C20.337 114.75 20.0195 114.407 19.7993 113.975C19.5792 113.543 19.4691 113.061 19.4691 112.528C19.4691 111.868 19.6004 111.254 19.8628 110.687C20.1253 110.12 20.5063 109.667 21.0058 109.328C21.5138 108.981 22.1277 108.808 22.8473 108.808C23.3638 108.808 23.8041 108.913 24.1681 109.125C24.5407 109.337 24.8243 109.629 25.019 110.001C25.2138 110.365 25.3111 110.78 25.3111 111.245C25.3111 111.415 25.2942 111.592 25.2603 111.779C25.2349 111.956 25.1926 112.143 25.1333 112.337H19.9644V111.449H24.6888L24.2443 111.804C24.2697 111.702 24.2867 111.601 24.2951 111.499C24.3121 111.398 24.3205 111.3 24.3205 111.207C24.3205 110.903 24.257 110.636 24.13 110.407C24.0115 110.179 23.8379 110.001 23.6093 109.874C23.3807 109.747 23.1056 109.684 22.7838 109.684C22.369 109.684 22.0134 109.768 21.717 109.938C21.4292 110.098 21.1921 110.319 21.0058 110.598C20.828 110.877 20.6968 111.19 20.6121 111.537C20.5359 111.876 20.4978 112.219 20.4978 112.566C20.4978 112.947 20.574 113.285 20.7264 113.582C20.8873 113.869 21.1074 114.098 21.3868 114.267C21.6662 114.428 21.9964 114.508 22.3774 114.508C22.8092 114.5 23.1648 114.407 23.4442 114.229C23.7236 114.051 23.9522 113.819 24.13 113.531L24.9301 114.064C24.7439 114.335 24.5195 114.572 24.257 114.775C23.9946 114.97 23.694 115.122 23.3553 115.232C23.0251 115.334 22.6611 115.384 22.2631 115.384Z" fill="white" fill-opacity="0.7" shape-rendering="crispEdges"/>
<path d="M26.7907 115.27L28.5306 107.741C28.6322 107.318 28.7803 106.975 28.9751 106.713C29.1698 106.45 29.4111 106.256 29.699 106.129C29.9953 106.002 30.3382 105.938 30.7277 105.938C30.9647 105.938 31.1849 105.968 31.3881 106.027C31.5913 106.078 31.7479 106.15 31.858 106.243L31.5151 107.068C31.4389 107.009 31.3288 106.958 31.1849 106.916C31.0409 106.873 30.8885 106.852 30.7277 106.852C30.3721 106.852 30.0969 106.937 29.9022 107.106C29.7074 107.276 29.5635 107.576 29.4704 108.008L29.2672 108.922L29.2037 109.252L27.8067 115.27H26.7907ZM26.7653 109.798L26.9685 108.922H31.2357L31.0325 109.798H26.7653Z" fill="white" fill-opacity="0.7" shape-rendering="crispEdges"/>
<path d="M33.1402 115.372C32.7338 115.372 32.3866 115.291 32.0988 115.131C31.8109 114.97 31.6077 114.737 31.4892 114.432C31.3706 114.128 31.3579 113.764 31.4511 113.34L32.7846 107.525L33.8895 107.208L32.4417 113.391C32.357 113.78 32.4078 114.06 32.5941 114.229C32.7888 114.39 33.0301 114.47 33.318 114.47C33.5296 114.47 33.7159 114.441 33.8768 114.381C34.0376 114.322 34.1773 114.246 34.2959 114.153L34.4991 114.991C34.2874 115.135 34.0715 115.232 33.8514 115.283C33.6312 115.342 33.3942 115.372 33.1402 115.372ZM30.9812 109.798L31.1844 108.922H35.4516L35.2484 109.798H30.9812Z" fill="white" fill-opacity="0.7" shape-rendering="crispEdges"/>
</g>
<defs>
<filter id="filter0_d_928_1088" x="0" y="0" width="137" height="127" filterUnits="userSpaceOnUse" color-interpolation-filters="sRGB">
<feFlood flood-opacity="0" result="BackgroundImageFix"/>
<feColorMatrix in="SourceAlpha" type="matrix" values="0 0 0 0 0 0 0 0 0 0 0 0 0 0 0 0 0 0 127 0" result="hardAlpha"/>
<feOffset dy="4"/>
<feGaussianBlur stdDeviation="2.5"/>
<feComposite in2="hardAlpha" operator="out"/>
<feColorMatrix type="matrix" values="0 0 0 0 0 0 0 0 0 0 0 0 0 0 0 0 0 0 0.5 0"/>
<feBlend mode="normal" in2="BackgroundImageFix" result="effect1_dropShadow_928_1088"/>
<feBlend mode="normal" in="SourceGraphic" in2="effect1_dropShadow_928_1088" result="shape"/>
</filter>
</defs>
</svg>
